<svg xmlns="http://www.w3.org/2000/svg" viewBox="0 0 462.27 429.06"><defs><style>.cls-1{opacity:0.1;}.cls-2{opacity:0.8;}.cls-3{fill:#899bc7;}.cls-4{fill:#7785ad;}.cls-5{fill:#aabded;}.cls-6{fill:#95a9d9;}.cls-7{fill:#7987ad;}.cls-8{fill:#69759b;}.cls-9{fill:#58637f;}.cls-10{fill:#1c1c1c;}.cls-11{fill:none;stroke:#0d1628;stroke-linecap:round;stroke-linejoin:round;stroke-width:0.5px;}.cls-12,.cls-13{fill:#fff;}.cls-12{opacity:0.2;}.cls-13{opacity:0.3;}.cls-14{fill:#50be97;}</style></defs><title>Asset 127</title><g id="Layer_2" data-name="Layer 2"><g id="Layer_1-2" data-name="Layer 1"><g class="cls-1"><g class="cls-2"><polygon id="path4666" class="cls-3" points="147.94 311.03 115.51 125.5 280.25 189.06 147.94 311.03"/><polygon id="path4668" class="cls-4" points="147.94 311.03 57.77 244.62 115.51 125.5 147.94 311.03"/><polygon id="path4670" class="cls-5" points="115.51 125.5 271.85 47.26 280.25 189.06 115.51 125.5"/><polygon id="path4672" class="cls-6" points="115.51 125.5 134.35 81.6 271.85 47.26 115.51 125.5"/><polygon id="path4674" class="cls-7" points="324.33 347.46 147.94 311.03 280.25 189.06 324.33 347.46"/><polygon id="path4676" class="cls-8" points="324.33 347.46 186.83 381.8 147.94 311.03 324.33 347.46"/><polygon id="path4678" class="cls-4" points="271.85 47.26 400.91 184.44 280.25 189.06 271.85 47.26"/><polygon id="path4680" class="cls-8" points="400.91 184.44 324.33 347.46 280.25 189.06 400.91 184.44"/><polygon id="path4682" class="cls-9" points="57.77 244.62 147.94 311.03 186.83 381.8 57.77 244.62"/><polygon id="path4684" class="cls-10" points="134.35 81.6 115.51 125.5 57.77 244.62 134.35 81.6"/></g><polygon id="path4666-2" data-name="path4666" class="cls-11" points="71.24 156.48 289.06 31.22 284.49 266.74 71.24 156.48"/><polygon id="path4668-2" data-name="path4668" class="cls-11" points="71.24 156.48 113.39 13.15 289.06 31.22 71.24 156.48"/><polygon id="path4670-2" data-name="path4670" class="cls-11" points="289.06 31.22 458.43 191.56 284.49 266.74 289.06 31.22"/><polygon id="path4672-2" data-name="path4672" class="cls-11" points="289.06 31.22 352.68 34.83 458.43 191.56 289.06 31.22"/><polygon id="path4674-2" data-name="path4674" class="cls-11" points="106 394.23 71.24 156.48 284.49 266.74 106 394.23"/><polygon id="path4676-2" data-name="path4676" class="cls-11" points="106 394.23 0.25 237.5 71.24 156.48 106 394.23"/><polygon id="path4678-2" data-name="path4678" class="cls-11" points="458.43 191.56 345.3 415.91 284.49 266.74 458.43 191.56"/><polygon id="path4680-2" data-name="path4680" class="cls-11" points="345.3 415.91 106 394.23 284.49 266.74 345.3 415.91"/><polygon id="path4682-2" data-name="path4682" class="cls-11" points="113.39 13.15 71.24 156.48 0.25 237.5 113.39 13.15"/><polygon id="path4684-2" data-name="path4684" class="cls-11" points="352.68 34.83 289.06 31.22 113.39 13.15 352.68 34.83"/><polygon id="path4666-3" data-name="path4666" class="cls-11" points="76.5 285.27 141.95 42.69 305.26 212.45 76.5 285.27"/><polygon id="path4668-3" data-name="path4668" class="cls-11" points="76.5 285.27 4.95 154.13 141.95 42.69 76.5 285.27"/><polygon id="path4670-3" data-name="path4670" class="cls-11" points="141.95 42.69 375.09 36.3 305.26 212.45 141.95 42.69"/><polygon id="path4672-3" data-name="path4672" class="cls-11" points="141.95 42.69 189.49 0.25 375.09 36.3 141.95 42.69"/><polygon id="path4674-3" data-name="path4674" class="cls-11" points="269.19 428.81 76.5 285.27 305.26 212.45 269.19 428.81"/><polygon id="path4676-3" data-name="path4676" class="cls-11" points="269.19 428.81 83.59 392.76 76.5 285.27 269.19 428.81"/><polygon id="path4678-3" data-name="path4678" class="cls-11" points="375.09 36.3 453.73 274.93 305.26 212.45 375.09 36.3"/><polygon id="path4680-3" data-name="path4680" class="cls-11" points="453.73 274.93 269.19 428.81 305.26 212.45 453.73 274.93"/><polygon id="path4682-3" data-name="path4682" class="cls-11" points="4.95 154.13 76.5 285.27 83.59 392.76 4.95 154.13"/><polygon id="path4684-3" data-name="path4684" class="cls-11" points="189.49 0.25 141.95 42.69 4.95 154.13 189.49 0.25"/><circle class="cls-12" cx="147.81" cy="310.78" r="9.19"/><circle class="cls-13" cx="147.81" cy="310.78" r="7.2"/><circle class="cls-13" cx="147.81" cy="310.78" r="5.36"/><circle class="cls-8" cx="147.81" cy="310.78" r="3.06"/><circle class="cls-12" cx="58.95" cy="244.62" r="9.19"/><circle class="cls-13" cx="58.95" cy="244.62" r="7.2"/><circle class="cls-13" cx="58.95" cy="244.62" r="5.36"/><circle class="cls-8" cx="58.95" cy="244.62" r="3.06"/><circle class="cls-12" cx="279.62" cy="188.62" r="9.19"/><circle class="cls-13" cx="279.62" cy="188.62" r="7.2"/><circle class="cls-13" cx="279.62" cy="188.62" r="5.36"/><circle class="cls-8" cx="279.62" cy="188.62" r="3.06"/><circle class="cls-12" cx="271.27" cy="47.08" r="9.19"/><circle class="cls-13" cx="271.27" cy="47.08" r="7.2"/><circle class="cls-13" cx="271.27" cy="47.08" r="5.36"/><circle class="cls-8" cx="271.27" cy="47.08" r="3.06"/><circle class="cls-12" cx="284.69" cy="266.89" r="9.19"/><circle class="cls-13" cx="284.69" cy="266.89" r="7.2"/><circle class="cls-13" cx="284.69" cy="266.89" r="5.36"/><circle class="cls-14" cx="284.69" cy="266.89" r="3.06"/><circle class="cls-12" cx="453.08" cy="275.14" r="9.19"/><circle class="cls-13" cx="453.08" cy="275.14" r="7.2"/><circle class="cls-13" cx="453.08" cy="275.14" r="5.36"/><circle class="cls-14" cx="453.08" cy="275.14" r="3.06"/></g></g></g></svg>