<svg xmlns="http://www.w3.org/2000/svg" viewBox="0 0 265.92 246.93"><defs><style>.cls-1{opacity:0.1;}.cls-2{opacity:0.8;}.cls-3{fill:#899bc7;}.cls-4{fill:#7785ad;}.cls-5{fill:#aabded;}.cls-6{fill:#95a9d9;}.cls-7{fill:#7987ad;}.cls-8{fill:#69759b;}.cls-9{fill:#58637f;}.cls-10{fill:#1c1c1c;}.cls-11{fill:none;stroke:#0d1628;stroke-linecap:round;stroke-linejoin:round;stroke-width:0.5px;}.cls-12,.cls-13{fill:#fff;}.cls-12{opacity:0.2;}.cls-13{opacity:0.3;}.cls-14{fill:#50be97;}</style></defs><title>Asset 125</title><g id="Layer_2" data-name="Layer 2"><g id="Layer_1-2" data-name="Layer 1"><g class="cls-1"><g class="cls-2"><polygon id="path4666" class="cls-3" points="85.17 67.97 66.53 174.66 161.25 138.11 85.17 67.97"/><polygon id="path4668" class="cls-4" points="85.17 67.97 33.33 106.16 66.53 174.66 85.17 67.97"/><polygon id="path4670" class="cls-5" points="66.53 174.66 156.42 219.64 161.25 138.11 66.53 174.66"/><polygon id="path4672" class="cls-6" points="66.53 174.66 77.36 199.9 156.42 219.64 66.53 174.66"/><polygon id="path4674" class="cls-7" points="186.6 47.03 85.17 67.97 161.25 138.11 186.6 47.03"/><polygon id="path4676" class="cls-8" points="186.6 47.03 107.53 27.28 85.17 67.97 186.6 47.03"/><polygon id="path4678" class="cls-4" points="156.42 219.64 230.63 140.76 161.25 138.11 156.42 219.64"/><polygon id="path4680" class="cls-8" points="230.63 140.76 186.6 47.03 161.25 138.11 230.63 140.76"/><polygon id="path4682" class="cls-9" points="33.33 106.16 85.17 67.97 107.53 27.28 33.33 106.16"/><polygon id="path4684" class="cls-10" points="77.36 199.9 66.53 174.66 33.33 106.16 77.36 199.9"/></g><polygon id="path4666-2" data-name="path4666" class="cls-11" points="41.07 156.84 166.32 228.87 163.69 93.44 41.07 156.84"/><polygon id="path4668-2" data-name="path4668" class="cls-11" points="41.07 156.84 65.3 239.26 166.32 228.87 41.07 156.84"/><polygon id="path4670-2" data-name="path4670" class="cls-11" points="166.32 228.87 263.71 136.67 163.69 93.44 166.32 228.87"/><polygon id="path4672-2" data-name="path4672" class="cls-11" points="166.32 228.87 202.9 226.79 263.71 136.67 166.32 228.87"/><polygon id="path4674-2" data-name="path4674" class="cls-11" points="61.06 20.14 41.07 156.84 163.69 93.44 61.06 20.14"/><polygon id="path4676-2" data-name="path4676" class="cls-11" points="61.06 20.14 0.25 110.25 41.07 156.84 61.06 20.14"/><polygon id="path4678-2" data-name="path4678" class="cls-11" points="263.71 136.67 198.66 7.67 163.69 93.44 263.71 136.67"/><polygon id="path4680-2" data-name="path4680" class="cls-11" points="198.66 7.67 61.06 20.14 163.69 93.44 198.66 7.67"/><polygon id="path4682-2" data-name="path4682" class="cls-11" points="65.3 239.26 41.07 156.84 0.25 110.25 65.3 239.26"/><polygon id="path4684-2" data-name="path4684" class="cls-11" points="202.9 226.79 166.32 228.87 65.3 239.26 202.9 226.79"/><polygon id="path4666-3" data-name="path4666" class="cls-11" points="44.09 82.78 81.73 222.28 175.63 124.66 44.09 82.78"/><polygon id="path4668-3" data-name="path4668" class="cls-11" points="44.09 82.78 2.95 158.19 81.73 222.28 44.09 82.78"/><polygon id="path4670-3" data-name="path4670" class="cls-11" points="81.73 222.28 215.79 225.95 175.63 124.66 81.73 222.28"/><polygon id="path4672-3" data-name="path4672" class="cls-11" points="81.73 222.28 109.06 246.68 215.79 225.95 81.73 222.28"/><polygon id="path4674-3" data-name="path4674" class="cls-11" points="154.89 0.25 44.09 82.78 175.63 124.66 154.89 0.25"/><polygon id="path4676-3" data-name="path4676" class="cls-11" points="154.89 0.25 48.17 20.98 44.09 82.78 154.89 0.25"/><polygon id="path4678-3" data-name="path4678" class="cls-11" points="215.79 225.95 261 88.73 175.63 124.66 215.79 225.95"/><polygon id="path4680-3" data-name="path4680" class="cls-11" points="261 88.73 154.89 0.25 175.63 124.66 261 88.73"/><polygon id="path4682-3" data-name="path4682" class="cls-11" points="2.95 158.19 44.09 82.78 48.17 20.98 2.95 158.19"/><polygon id="path4684-3" data-name="path4684" class="cls-11" points="109.06 246.68 81.73 222.28 2.95 158.19 109.06 246.68"/><circle class="cls-12" cx="85.1" cy="68.12" r="5.28"/><circle class="cls-13" cx="85.1" cy="68.12" r="4.14"/><circle class="cls-13" cx="85.1" cy="68.12" r="3.08"/><circle class="cls-8" cx="85.1" cy="68.12" r="1.76"/><circle class="cls-12" cx="34" cy="106.16" r="5.28"/><circle class="cls-13" cx="34" cy="106.16" r="4.14"/><circle class="cls-13" cx="34" cy="106.16" r="3.08"/><circle class="cls-8" cx="34" cy="106.16" r="1.76"/><circle class="cls-12" cx="160.89" cy="138.36" r="5.28"/><circle class="cls-13" cx="160.89" cy="138.36" r="4.14"/><circle class="cls-13" cx="160.89" cy="138.36" r="3.08"/><circle class="cls-8" cx="160.89" cy="138.36" r="1.76"/><circle class="cls-12" cx="156.09" cy="219.75" r="5.28"/><circle class="cls-13" cx="156.09" cy="219.75" r="4.14"/><circle class="cls-13" cx="156.09" cy="219.75" r="3.08"/><circle class="cls-8" cx="156.09" cy="219.75" r="1.76"/><circle class="cls-12" cx="163.81" cy="93.35" r="5.28"/><circle class="cls-13" cx="163.81" cy="93.35" r="4.14"/><circle class="cls-13" cx="163.81" cy="93.35" r="3.08"/><circle class="cls-14" cx="163.81" cy="93.35" r="1.76"/><circle class="cls-12" cx="260.63" cy="88.61" r="5.28"/><circle class="cls-13" cx="260.63" cy="88.61" r="4.14"/><circle class="cls-13" cx="260.63" cy="88.61" r="3.08"/><circle class="cls-14" cx="260.63" cy="88.61" r="1.76"/></g></g></g></svg>