<svg xmlns="http://www.w3.org/2000/svg" viewBox="0 0 462.27 429.06"><defs><style>.cls-1{opacity:0.1;}.cls-2{opacity:0.8;}.cls-3{fill:#899bc7;}.cls-4{fill:#7785ad;}.cls-5{fill:#aabded;}.cls-6{fill:#95a9d9;}.cls-7{fill:#7987ad;}.cls-8{fill:#69759b;}.cls-9{fill:#58637f;}.cls-10{fill:#1c1c1c;}.cls-11{fill:none;stroke:#0d1628;stroke-linecap:round;stroke-linejoin:round;stroke-width:0.5px;}.cls-12,.cls-13{fill:#fff;}.cls-12{opacity:0.2;}.cls-13{opacity:0.3;}.cls-14{fill:#50be97;}</style></defs><title>Asset 126</title><g id="Layer_2" data-name="Layer 2"><g id="Layer_1-2" data-name="Layer 1"><g class="cls-1"><g class="cls-2"><polygon id="path4666" class="cls-3" points="314.33 311.03 346.76 125.5 182.03 189.06 314.33 311.03"/><polygon id="path4668" class="cls-4" points="314.33 311.03 404.5 244.62 346.76 125.5 314.33 311.03"/><polygon id="path4670" class="cls-5" points="346.76 125.5 190.42 47.26 182.03 189.06 346.76 125.5"/><polygon id="path4672" class="cls-6" points="346.76 125.5 327.92 81.6 190.42 47.26 346.76 125.5"/><polygon id="path4674" class="cls-7" points="137.95 347.46 314.33 311.03 182.03 189.06 137.95 347.46"/><polygon id="path4676" class="cls-8" points="137.95 347.46 275.45 381.8 314.33 311.03 137.95 347.46"/><polygon id="path4678" class="cls-4" points="190.42 47.26 61.37 184.44 182.03 189.06 190.42 47.26"/><polygon id="path4680" class="cls-8" points="61.37 184.44 137.95 347.46 182.03 189.06 61.37 184.44"/><polygon id="path4682" class="cls-9" points="404.5 244.62 314.33 311.03 275.45 381.8 404.5 244.62"/><polygon id="path4684" class="cls-10" points="327.92 81.6 346.76 125.5 404.5 244.62 327.92 81.6"/></g><polygon id="path4666-2" data-name="path4666" class="cls-11" points="391.03 156.48 173.22 31.22 177.78 266.74 391.03 156.48"/><polygon id="path4668-2" data-name="path4668" class="cls-11" points="391.03 156.48 348.89 13.15 173.22 31.22 391.03 156.48"/><polygon id="path4670-2" data-name="path4670" class="cls-11" points="173.22 31.22 3.84 191.56 177.78 266.74 173.22 31.22"/><polygon id="path4672-2" data-name="path4672" class="cls-11" points="173.22 31.22 109.59 34.83 3.84 191.56 173.22 31.22"/><polygon id="path4674-2" data-name="path4674" class="cls-11" points="356.27 394.23 391.03 156.48 177.78 266.74 356.27 394.23"/><polygon id="path4676-2" data-name="path4676" class="cls-11" points="356.27 394.23 462.02 237.5 391.03 156.48 356.27 394.23"/><polygon id="path4678-2" data-name="path4678" class="cls-11" points="3.84 191.56 116.98 415.91 177.78 266.74 3.84 191.56"/><polygon id="path4680-2" data-name="path4680" class="cls-11" points="116.98 415.91 356.27 394.23 177.78 266.74 116.98 415.91"/><polygon id="path4682-2" data-name="path4682" class="cls-11" points="348.89 13.15 391.03 156.48 462.02 237.5 348.89 13.15"/><polygon id="path4684-2" data-name="path4684" class="cls-11" points="109.59 34.83 173.22 31.22 348.89 13.15 109.59 34.83"/><polygon id="path4666-3" data-name="path4666" class="cls-11" points="385.78 285.27 320.33 42.69 157.02 212.45 385.78 285.27"/><polygon id="path4668-3" data-name="path4668" class="cls-11" points="385.78 285.27 457.32 154.13 320.33 42.69 385.78 285.27"/><polygon id="path4670-3" data-name="path4670" class="cls-11" points="320.33 42.69 87.19 36.3 157.02 212.45 320.33 42.69"/><polygon id="path4672-3" data-name="path4672" class="cls-11" points="320.33 42.69 272.78 0.25 87.19 36.3 320.33 42.69"/><polygon id="path4674-3" data-name="path4674" class="cls-11" points="193.08 428.81 385.78 285.27 157.02 212.45 193.08 428.81"/><polygon id="path4676-3" data-name="path4676" class="cls-11" points="193.08 428.81 378.68 392.76 385.78 285.27 193.08 428.81"/><polygon id="path4678-3" data-name="path4678" class="cls-11" points="87.19 36.3 8.55 274.93 157.02 212.45 87.19 36.3"/><polygon id="path4680-3" data-name="path4680" class="cls-11" points="8.55 274.93 193.08 428.81 157.02 212.45 8.55 274.93"/><polygon id="path4682-3" data-name="path4682" class="cls-11" points="457.32 154.13 385.78 285.27 378.68 392.76 457.32 154.13"/><polygon id="path4684-3" data-name="path4684" class="cls-11" points="272.78 0.25 320.33 42.69 457.32 154.13 272.78 0.25"/><circle class="cls-12" cx="314.47" cy="310.78" r="9.19"/><circle class="cls-13" cx="314.47" cy="310.78" r="7.2"/><circle class="cls-13" cx="314.47" cy="310.78" r="5.36"/><circle class="cls-8" cx="314.47" cy="310.78" r="3.06"/><circle class="cls-12" cx="403.33" cy="244.62" r="9.19"/><circle class="cls-13" cx="403.33" cy="244.62" r="7.2"/><circle class="cls-13" cx="403.33" cy="244.62" r="5.36"/><circle class="cls-8" cx="403.33" cy="244.62" r="3.06"/><circle class="cls-12" cx="182.66" cy="188.62" r="9.19"/><circle class="cls-13" cx="182.66" cy="188.62" r="7.2"/><circle class="cls-13" cx="182.66" cy="188.62" r="5.36"/><circle class="cls-8" cx="182.66" cy="188.62" r="3.06"/><circle class="cls-12" cx="191" cy="47.08" r="9.19"/><circle class="cls-13" cx="191" cy="47.08" r="7.2"/><circle class="cls-13" cx="191" cy="47.08" r="5.36"/><circle class="cls-8" cx="191" cy="47.08" r="3.06"/><circle class="cls-12" cx="177.58" cy="266.89" r="9.19"/><circle class="cls-13" cx="177.58" cy="266.89" r="7.2"/><circle class="cls-13" cx="177.58" cy="266.89" r="5.36"/><circle class="cls-14" cx="177.58" cy="266.89" r="3.06"/><circle class="cls-12" cx="9.19" cy="275.14" r="9.19"/><circle class="cls-13" cx="9.19" cy="275.14" r="7.2"/><circle class="cls-13" cx="9.19" cy="275.14" r="5.36"/><circle class="cls-14" cx="9.19" cy="275.14" r="3.06"/></g></g></g></svg>