<svg xmlns="http://www.w3.org/2000/svg" viewBox="0 0 296.43 253.59"><defs><style>.cls-1{fill:#93a4be;}.cls-2{fill:#fff;}.cls-3{fill:#fc326c;}</style></defs><title>Asset 59</title><g id="Layer_2" data-name="Layer 2"><g id="Layer_1-2" data-name="Layer 1"><rect class="cls-1" width="296.43" height="253.59"/><path class="cls-2" d="M44.45,61.08c.63,2.76,2.46,4.41,5.91,4.41,3.81,0,5.25-1.92,5.25-4.17s-1-3.81-5.64-5-6.36-2.55-6.36-5.58c0-2.79,2-5.37,6.51-5.37,4.65,0,6.59,2.82,6.87,5.4H55.25C54.77,48.57,53.33,47,50,47c-3,0-4.62,1.38-4.62,3.69s1.35,3.21,5.22,4.14c5.91,1.47,6.78,3.84,6.78,6.39,0,3.09-2.25,5.76-7.14,5.76C45,67,43.1,63.9,42.71,61.08Z"/><path class="cls-2" d="M59.24,51.72H62V47h1.56v4.68h3.57v1.44H63.59v9.69c0,1.68.36,2.64,1.8,2.64a5.38,5.38,0,0,0,1.53-.18v1.35a5.27,5.27,0,0,1-1.86.27c-2,0-3-1-3-3.39V53.16H59.24Z"/><path class="cls-2" d="M80.56,63.84a17.6,17.6,0,0,0,.21,2.88h-1.5A9.77,9.77,0,0,1,79,64.44c-.51,1.08-1.83,2.64-4.91,2.64-3.49,0-5-2.25-5-4.5,0-3.3,2.55-4.83,7.05-4.83H79v-1.5c0-1.5-.45-3.48-3.84-3.48-3,0-3.45,1.56-3.78,2.79H69.82c.19-1.68,1.2-4.2,5.37-4.2,3.42,0,5.37,1.44,5.37,4.74ZM79,59.07H76.09c-3.29,0-5.33.87-5.33,3.45a3.09,3.09,0,0,0,3.41,3.15c4.26,0,4.86-2.85,4.86-6.06Z"/><path class="cls-2" d="M85.48,55.8c0-2.52,0-3.6,0-4.08H87c0,.45.06,1.44.06,3.33a5.62,5.62,0,0,1,5.22-3.69V53C89.14,53.22,87,55.35,87,59v7.77H85.48Z"/><path class="cls-2" d="M93.94,51.72h2.79V47h1.56v4.68h3.57v1.44H98.29v9.69c0,1.68.36,2.64,1.8,2.64a5.34,5.34,0,0,0,1.53-.18v1.35a5.27,5.27,0,0,1-1.86.27c-2,0-3-1-3-3.39V53.16H93.94Z"/><path class="cls-2" d="M125.56,56.43H114.88v8.73h11.7l-.24,1.56H113.2v-21h12.9v1.56H114.88v7.59h10.68Z"/><path class="cls-2" d="M140.71,63.84a17.6,17.6,0,0,0,.21,2.88h-1.5a9.77,9.77,0,0,1-.27-2.28c-.51,1.08-1.83,2.64-4.92,2.64-3.48,0-5-2.25-5-4.5,0-3.3,2.55-4.83,7.05-4.83h2.85v-1.5c0-1.5-.45-3.48-3.84-3.48-3,0-3.45,1.56-3.78,2.79H130c.18-1.68,1.2-4.2,5.37-4.2,3.42,0,5.37,1.44,5.37,4.74Zm-1.53-4.77h-2.94c-3.3,0-5.34.87-5.34,3.45a3.1,3.1,0,0,0,3.42,3.15c4.26,0,4.86-2.85,4.86-6.06Z"/><path class="cls-2" d="M145.63,55.8c0-2.52,0-3.6,0-4.08h1.53c0,.45.06,1.44.06,3.33a5.62,5.62,0,0,1,5.22-3.69V53c-3.12.21-5.22,2.34-5.22,5.94v7.77h-1.56Z"/><path class="cls-2" d="M155.08,55.5c0-1.32,0-2.58,0-3.78h1.53c.06.48.09,2.4.06,2.82a4.87,4.87,0,0,1,5-3.18c2.7,0,5,1.5,5,5.64v9.72h-1.56V57.24c0-2.64-1.08-4.38-3.69-4.38-3.51,0-4.74,2.94-4.74,6.18v7.68h-1.56Z"/><path class="cls-2" d="M171.55,47.55V44.61h1.56v2.94Zm0,4.17h1.56v15h-1.56Z"/><path class="cls-2" d="M178,55.5c0-1.32,0-2.58,0-3.78h1.53c.06.48.09,2.4.06,2.82a4.87,4.87,0,0,1,4.95-3.18c2.7,0,5,1.5,5,5.64v9.72H188V57.24c0-2.64-1.08-4.38-3.69-4.38-3.51,0-4.74,2.94-4.74,6.18v7.68H178Z"/><path class="cls-2" d="M206,65.67c0,4.8-2.13,7.35-6.51,7.35-4,0-5.55-2.22-5.91-4.47h1.59c.54,2,2.22,3,4.38,3,3.87,0,5-2.52,5-6.3V63.72c-.81,2-2.28,3-5,3-3.51,0-6.21-2.88-6.21-7.5,0-5,2.88-7.86,6.42-7.86,3.06,0,4.38,1.41,4.8,2.61,0-.87.06-1.89.09-2.25h1.47c0,.54-.06,2.91-.06,4.35Zm-6.33-.42c3.72,0,4.86-2.46,4.86-6.33s-1.2-6.12-4.77-6.12c-3.42,0-4.83,2.94-4.83,6.36S196.81,65.25,199.66,65.25Z"/><path class="cls-2" d="M48.53,82.28H41.48V80.72H57.29v1.56h-7v19.44H48.53Z"/><path class="cls-2" d="M68.87,94.19c0,4.17-2.31,7.89-6.78,7.89-4.08,0-6.6-3.33-6.6-7.86,0-4.32,2.37-7.86,6.75-7.86C66.23,86.36,68.87,89.48,68.87,94.19Zm-11.73,0c0,3.54,1.89,6.42,5.07,6.42s5-2.67,5-6.42c0-3.54-1.76-6.42-5.06-6.42S57.14,90.62,57.14,94.22Z"/><path class="cls-2" d="M74.15,94.43c1.38-1.47,5.52-5.7,7.52-7.71h2l-5.91,6,6.65,9H82.49l-5.88-8-2.46,2.4v5.64H72.59V79.61h1.56Z"/><path class="cls-2" d="M86.9,94.4c0,3.84,1.95,6.24,4.83,6.24A4.14,4.14,0,0,0,96,97.82h1.62a5.81,5.81,0,0,1-5.94,4.26c-4.59,0-6.36-3.93-6.36-7.74,0-4.32,2.13-8,6.54-8,4.61,0,6.09,4,6.09,6.81,0,.42,0,.84,0,1.23Zm9.42-1.35c0-2.94-1.62-5.25-4.53-5.25-3.09,0-4.47,2.13-4.8,5.25Z"/><path class="cls-2" d="M101.6,90.5c0-1.32,0-2.58,0-3.78h1.53c.06.48.09,2.4.06,2.82a4.87,4.87,0,0,1,5-3.18c2.69,0,5,1.5,5,5.64v9.72h-1.56V92.24c0-2.64-1.08-4.38-3.69-4.38-3.51,0-4.74,2.94-4.74,6.18v7.68H101.6Z"/><path class="cls-2" d="M118,97.58a4,4,0,0,0,4.23,3.09c2.64,0,3.72-1.23,3.72-2.88s-.72-2.52-4-3.33c-3.9-.93-4.86-2.13-4.86-4.11s1.56-4,5-4,5,2.07,5.28,4.2h-1.56A3.5,3.5,0,0,0,122,87.77c-2.58,0-3.33,1.26-3.33,2.46s.72,2,3.66,2.76c4.26,1,5.31,2.43,5.31,4.68,0,2.7-2.22,4.41-5.4,4.41-3.45,0-5.37-1.8-5.79-4.5Z"/><path class="cls-2" d="M57.45,217.48H55.14a11.2,11.2,0,0,1-.26-1.85c-.84,1.22-2.4,2.11-4.94,2.11-4.8,0-7.44-3.65-7.44-8.37,0-5,2.83-8.74,8-8.74,4.13,0,6.6,2.3,7,5.18h-3.1a3.72,3.72,0,0,0-4-2.69c-3.55,0-4.73,2.93-4.73,6.1s1.27,6,4.71,6c3.29,0,4-2.25,4-4.17v-.17h-4v-2.57h7Z"/><path class="cls-2" d="M73.46,210.11h-8v4.8h8.85l-.38,2.57H62.37V200.87H73.82v2.59h-8.4v4.08h8Z"/><path class="cls-2" d="M82.19,203.46H77.05v-2.59h13.4v2.59H85.31v14H82.19Z"/><path class="cls-2" d="M104.37,203.46H99.23v-2.59h13.39v2.59h-5.13v14h-3.12Z"/><path class="cls-2" d="M116.1,200.87h3.12v6.65h7.37v-6.65h3.1v16.61h-3.1v-7.39h-7.37v7.39H116.1Z"/><path class="cls-2" d="M146.15,210.11h-8v4.8H147l-.39,2.57H135.06V200.87h11.45v2.59h-8.4v4.08h8Z"/><path class="cls-2" d="M160.86,213.25l-1.46,4.23h-3.07l5.73-16.61H166l6,16.61h-3.29l-1.51-4.23Zm5.55-2.59c-1.3-3.79-2.09-6-2.5-7.46h0c-.41,1.56-1.28,4.22-2.33,7.46Z"/><path class="cls-2" d="M175.41,200.87h6.67c3.43,0,5.76,1.92,5.76,5,0,3.48-2.59,5.16-5.86,5.16h-3.45v6.41h-3.12Zm3.12,7.68h3.12c1.87,0,3-.79,3-2.57s-1.29-2.59-2.95-2.59h-3.21Z"/><path class="cls-2" d="M191.87,200.87h6.67c3.43,0,5.76,1.92,5.76,5,0,3.48-2.59,5.16-5.85,5.16H195v6.41h-3.12Zm3.12,7.68h3.12c1.87,0,3-.79,3-2.57s-1.3-2.59-2.95-2.59H195Z"/><rect class="cls-3" x="231.15" y="207.8" width="27.91" height="2.48"/><polygon class="cls-3" points="250.84 219.19 249.15 217.37 258.11 209.04 249.15 200.72 250.84 198.9 261.75 209.04 250.84 219.19"/></g></g></svg>