<svg xmlns="http://www.w3.org/2000/svg" viewBox="0 0 16.7 12.65"><defs><style>.cls-1{fill:#93a4be;}</style></defs><title>Asset 1</title><g id="Layer_2" data-name="Layer 2"><g id="Layer_1-2" data-name="Layer 1"><path class="cls-1" d="M8.35,5.2A1.53,1.53,0,1,1,9.87,3.67,1.52,1.52,0,0,1,8.35,5.2Zm0-2.39a.87.87,0,1,0,.85.86A.86.86,0,0,0,8.35,2.81Z"/><path class="cls-1" d="M5.71,10.51A1.53,1.53,0,1,1,7.24,9,1.53,1.53,0,0,1,5.71,10.51Zm0-2.39A.86.86,0,1,0,6.57,9,.85.85,0,0,0,5.71,8.12Z"/><path class="cls-1" d="M11,10.51A1.53,1.53,0,1,1,12.51,9,1.53,1.53,0,0,1,11,10.51Zm0-2.39a.86.86,0,1,0,.86.86A.85.85,0,0,0,11,8.12Z"/><path class="cls-1" d="M6.64,8.56A.33.33,0,0,1,6.43,8L8,6.67V4.87a.33.33,0,0,1,.66,0v2a.34.34,0,0,1-.12.26L6.85,8.48A.34.34,0,0,1,6.64,8.56Z"/><path class="cls-1" d="M10,8.52a.34.34,0,0,1-.21-.08L8.14,7.09a.33.33,0,0,1-.05-.47.33.33,0,0,1,.47,0l1.66,1.35a.33.33,0,0,1,0,.47A.35.35,0,0,1,10,8.52Z"/><path class="cls-1" d="M16.37,2.91A.34.34,0,0,1,16,2.58V.67h-1.9a.34.34,0,1,1,0-.67h2.24a.33.33,0,0,1,.33.33V2.58A.33.33,0,0,1,16.37,2.91Z"/><path class="cls-1" d="M16.37,12.65H14.13a.34.34,0,1,1,0-.67H16V10.07a.34.34,0,0,1,.67,0v2.25A.33.33,0,0,1,16.37,12.65Z"/><path class="cls-1" d="M2.57,12.65H.33A.33.33,0,0,1,0,12.32V10.07a.34.34,0,0,1,.67,0V12h1.9a.34.34,0,0,1,0,.67Z"/><path class="cls-1" d="M.33,2.91A.33.33,0,0,1,0,2.58V.33A.33.33,0,0,1,.33,0H2.57A.33.33,0,0,1,2.9.33a.33.33,0,0,1-.33.34H.67V2.58A.34.34,0,0,1,.33,2.91Z"/></g></g></svg>