<svg xmlns="http://www.w3.org/2000/svg" viewBox="0 0 20 20.3"><defs><style>.cls-1{fill:#93a4be;}</style></defs><title>Asset 4</title><g id="Layer_2" data-name="Layer 2"><g id="Layer_1-2" data-name="Layer 1"><path class="cls-1" d="M10,20.3a.39.39,0,0,1-.34-.19L6.57,15.28a.4.4,0,0,1,0-.41.42.42,0,0,1,.36-.21H8.23V13.13a.41.41,0,1,1,.81,0v1.93a.4.4,0,0,1-.4.41h-1L10,19.14l2.35-3.67h-1a.4.4,0,0,1-.4-.41V13.13a.41.41,0,1,1,.81,0v1.53h1.32a.42.42,0,0,1,.36.21.4.4,0,0,1,0,.41l-3.09,4.83A.39.39,0,0,1,10,20.3Z"/><path class="cls-1" d="M11.36,7.58a.41.41,0,0,1-.4-.41V5.23a.4.4,0,0,1,.4-.4h1L10,1.16l-.59.92a.4.4,0,0,1-.68-.44L9.66.19A.39.39,0,0,1,10,0h0a.39.39,0,0,1,.34.19L13.43,5a.4.4,0,0,1,0,.41.42.42,0,0,1-.36.21H11.77V7.17A.41.41,0,0,1,11.36,7.58Z"/><path class="cls-1" d="M8.35,3.4A.41.41,0,0,1,7.94,3a.38.38,0,0,1,.12-.28.42.42,0,0,1,.57,0A.38.38,0,0,1,8.75,3a.38.38,0,0,1-.12.29A.38.38,0,0,1,8.35,3.4Z"/><path class="cls-1" d="M8.64,7.58a.41.41,0,0,1-.41-.41V5.64H6.91a.42.42,0,0,1-.36-.21.4.4,0,0,1,0-.41l.71-1.11a.41.41,0,0,1,.56-.13A.42.42,0,0,1,8,4.35l-.31.48h1a.4.4,0,0,1,.4.4V7.17A.41.41,0,0,1,8.64,7.58Z"/><path class="cls-1" d="M14.84,13.69a.32.32,0,0,1-.19,0,.4.4,0,0,1-.22-.35V11.94H12.94a.41.41,0,1,1,0-.81h1.9a.41.41,0,0,1,.41.4v1l3.61-2.38L15.25,7.77v1a.41.41,0,0,1-.41.41h-1.9a.41.41,0,1,1,0-.81h1.49V7a.43.43,0,0,1,.22-.36.4.4,0,0,1,.41,0l4.76,3.14a.41.41,0,0,1,0,.68l-4.76,3.13A.34.34,0,0,1,14.84,13.69Z"/><path class="cls-1" d="M5.16,13.69a.34.34,0,0,1-.22-.07L.18,10.49a.41.41,0,0,1,0-.68L4.94,6.67a.4.4,0,0,1,.41,0A.43.43,0,0,1,5.57,7V8.36H7.06a.41.41,0,1,1,0,.81H5.16a.41.41,0,0,1-.41-.41v-1L1.14,10.15l3.61,2.38v-1a.41.41,0,0,1,.41-.4h1.9a.41.41,0,1,1,0,.81H5.57v1.35a.4.4,0,0,1-.22.35A.32.32,0,0,1,5.16,13.69Z"/></g></g></svg>