<svg xmlns="http://www.w3.org/2000/svg" viewBox="0 0 35 27.23"><defs><style>.cls-1{fill:#2c3554;}</style></defs><title>Asset 141</title><g id="Layer_2" data-name="Layer 2"><g id="Layer_1-2" data-name="Layer 1"><path class="cls-1" d="M25.62,7.9H9.38a.7.7,0,0,1-.7-.7V.7a.7.7,0,0,1,.7-.7h3.91a.7.7,0,0,1,.7.7.7.7,0,0,1-.7.7H10.08V6.5H24.92V1.4h-5.2A.7.7,0,0,1,19,.7a.7.7,0,0,1,.7-.7h5.9a.7.7,0,0,1,.7.7V7.2A.7.7,0,0,1,25.62,7.9Z"/><path class="cls-1" d="M16.51,1.4a.75.75,0,0,1-.5-.2.72.72,0,0,1-.2-.5A.74.74,0,0,1,16,.2a.73.73,0,0,1,1,0,.72.72,0,0,1,.22.5.7.7,0,0,1-.22.5A.7.7,0,0,1,16.51,1.4Z"/><path class="cls-1" d="M6.59,27.23H.7a.7.7,0,0,1-.7-.7V20.66A.7.7,0,0,1,.7,20H6.59a.7.7,0,0,1,.7.7v5.87A.7.7,0,0,1,6.59,27.23ZM1.4,25.83H5.89V21.36H1.4Z"/><path class="cls-1" d="M20.45,27.23h-5.9a.71.71,0,0,1-.7-.7V20.66a.71.71,0,0,1,.7-.7h5.9a.71.71,0,0,1,.7.7v5.87A.71.71,0,0,1,20.45,27.23Zm-5.2-1.4h4.5V21.36h-4.5Z"/><path class="cls-1" d="M34.3,27.23H28.41a.7.7,0,0,1-.7-.7V20.66a.7.7,0,0,1,.7-.7H34.3a.7.7,0,0,1,.7.7v5.87A.7.7,0,0,1,34.3,27.23Zm-5.19-1.4H33.6V21.36H29.11Z"/><path class="cls-1" d="M17.5,21.36a.7.7,0,0,1-.7-.7V7.2a.7.7,0,1,1,1.4,0V20.66A.7.7,0,0,1,17.5,21.36Z"/><path class="cls-1" d="M31.35,21.36a.7.7,0,0,1-.7-.7v-6H4.35V20A.7.7,0,0,1,3,20v-6.1a.7.7,0,0,1,.7-.7h27.7a.7.7,0,0,1,.7.7v6.73A.7.7,0,0,1,31.35,21.36Z"/></g></g></svg>