<svg xmlns="http://www.w3.org/2000/svg" viewBox="0 0 35.35 36.43"><defs><style>.cls-1{fill:#2c3554;}.cls-2{fill:none;stroke:#2c3554;stroke-miterlimit:10;stroke-width:1.5px;}</style></defs><title>Asset 142</title><g id="Layer_2" data-name="Layer 2"><g id="Layer_1-2" data-name="Layer 1"><path class="cls-1" d="M9.17,33.43h-.1a.72.72,0,0,1-.47-.28l-4.52-6.2A.71.71,0,0,1,4.15,26c.23-.24,5.86-5.84,11.24-3.65a22.27,22.27,0,0,0,7.48,1.42c2.59.12,4,.86,4.28,2.21a2.42,2.42,0,0,1-.68,1.9c-.85.9-2.36,1.29-4.47,1.16-3.18-.13-7,0-7.55.39a.69.69,0,0,1-1,0,.71.71,0,0,1,0-1c1-.94,5.78-.9,8.58-.78,1.65.1,2.85-.16,3.38-.73a1,1,0,0,0,.32-.72c-.11-.55-1.19-.94-3-1a23.49,23.49,0,0,1-7.94-1.53c-3.76-1.52-7.95,1.76-9.29,2.95L9.36,31.8c1.19-.59,4.19-1.57,10.57-1.13a19.63,19.63,0,0,0,2.15.06h0a.7.7,0,0,1,.7.69.69.69,0,0,1-.69.71c-.73,0-1.49,0-2.27-.06C12,31.52,9.62,33.26,9.6,33.28A.75.75,0,0,1,9.17,33.43Z"/><path class="cls-1" d="M24.11,32a.73.73,0,0,1-.5-.21.7.7,0,1,1,.5.21Z"/><path class="cls-1" d="M26.13,31.66A.7.7,0,0,1,26,30.28a12.47,12.47,0,0,0,7.26-4.69,3.44,3.44,0,0,0,.72-1.9h0c-.39,0-1.7.21-5.07,2.33a.7.7,0,0,1-.74-1.19c5.08-3.19,6.23-2.57,6.61-2.36a1.16,1.16,0,0,1,.62,1,4.73,4.73,0,0,1-1,3,13.82,13.82,0,0,1-8.05,5.2Z"/><path class="cls-1" d="M4.65,36.43H4.48A.72.72,0,0,1,4,36.08L.09,29.16a.7.7,0,0,1,.26-.95l3.94-2.29a.7.7,0,0,1,.92.19l4.52,6.21a.7.7,0,0,1-.18,1L5,36.32A.73.73,0,0,1,4.65,36.43Zm-3-7.36,3.23,5.67,3.29-2.19-3.72-5.1Z"/><circle class="cls-2" cx="16.05" cy="12.75" r="3"/><circle class="cls-2" cx="24.05" cy="3.75" r="3"/><circle class="cls-2" cx="27.05" cy="15.75" r="3"/></g></g></svg>