<svg xmlns="http://www.w3.org/2000/svg" viewBox="0 0 861.13 714.02"><defs><style>.cls-1{opacity:0.3;}.cls-2{fill:none;}.cls-3{fill:#93a4be;}</style></defs><title>Asset 67</title><g id="Layer_2" data-name="Layer 2"><g id="Layer_1-2" data-name="Layer 1"><g class="cls-1"><path class="cls-2" d="M481.11,413.75q-17-38.81-36.46-75.2Q428.32,308,410.08,278.83c-23.67,16.26-47.08,31.56-70.45,46Q307.53,344.7,276,362.19L370.43,547.8q34.79-38.5,67.57-78.92Q459.9,441.9,481.11,413.75Z"/><path class="cls-2" d="M115.7,437.81a1372.78,1372.78,0,0,0,71.17,117.82c23.19,34.4,48.5,68.65,75.66,102.42q11.37-10.71,22.54-21.57,43.59-42.45,85-88.28L275.54,362.43a1333.57,1333.57,0,0,1-127.89,62.44Q131.75,431.59,115.7,437.81Z"/><path class="cls-2" d="M114.51,436.62c-.06.4-.11.79-.17,1.18l.66-.25C114.83,437.24,114.67,436.93,114.51,436.62Z"/><path class="cls-2" d="M147.46,424.41A1331.58,1331.58,0,0,0,275.31,362l-32.82-64.5A961.27,961.27,0,0,0,132.31,412.26q-8.94,11-17.53,22.39c-.06.37-.11.75-.16,1.13.28.53.56,1.06.85,1.59Q131.52,431.12,147.46,424.41Z"/><path class="cls-2" d="M481.34,414.27q-21.12,28-42.95,54.93-32.77,40.43-67.72,79.08l71.92,141.34A1381.85,1381.85,0,0,0,543,591.48q-4.39-16.49-9.13-32.6A1214.72,1214.72,0,0,0,481.34,414.27Z"/><path class="cls-2" d="M339.37,324.41q35-21.68,70.45-46-23.08-36.91-49-71.38c-30.15,20-58.81,41-85.72,62.83q-16.45,13.35-32.2,27.3l32.87,64.6Q307.34,344.22,339.37,324.41Z"/><path class="cls-2" d="M100.47,595q-.68,17.94-.93,36Q115.17,642,131,652.47,171.09,679,213.12,703q24.94-21.88,49-44.59c-27.17-33.79-52.5-68-75.71-102.48A1376,1376,0,0,1,115.23,438l-1,.38A1561.46,1561.46,0,0,0,100.47,595Z"/><path class="cls-2" d="M26.2,576.46Q62,604.81,99.05,630.74q.27-17.93.92-35.72a1563,1563,0,0,1,13.76-156.44L111,439.63A924.09,924.09,0,0,0,26.2,576.46Z"/><path class="cls-2" d="M517.52,199.15c62.15-48.62,122.82-100.87,180.9-153.08q-20.83,7-41,14.35c-74.23,27-143.81,58.13-206.8,92.53q-46.53,25.41-89.37,53.79,25.9,34.41,49,71.38C445.18,254.1,480.71,228,517.52,199.15Z"/><path class="cls-2" d="M111.59,438.87l2.22-.86c.1-.71.19-1.43.29-2.14a1.74,1.74,0,0,0-.1-.19Z"/><path class="cls-2" d="M410.49,278.54q18.22,29.19,34.6,59.78,19.37,36.23,36.37,75C514.09,370,545.4,324.88,574.94,278.5a2284.84,2284.84,0,0,0,120.35-214q5.07-10.28,10.08-20.68l-5.75,1.9c-58.35,52.47-119.33,105-181.79,153.87C481,228.35,445.46,254.51,410.49,278.54Z"/><path class="cls-2" d="M171.38,184.68q-27.52,5.85-55.4,9.71A870.6,870.6,0,0,0,52.79,286c-1.27,2.12-2.52,4.26-3.78,6.4Q63.83,331,81.21,368.7q15.3,33.18,32.86,66.05l.23-.3q3.77-26.54,8.42-52.77A1546.35,1546.35,0,0,1,171.38,184.68Z"/><path class="cls-2" d="M176.72,168.24l-14.16-27.82q-24,25.44-46.13,53.41,27.7-3.86,55.13-9.7c1.22-3.82,2.45-7.65,3.69-11.46C175.74,171.19,176.24,169.72,176.72,168.24Z"/><path class="cls-2" d="M307.82,142.63A828.85,828.85,0,0,1,212,174.94q-13.83,3.72-27.78,6.91l58.44,114.84q15.72-13.89,32.11-27.23,40.38-32.79,85.74-62.84Q339,178.14,315.75,151.54C313.13,148.55,310.48,145.59,307.82,142.63Z"/><path class="cls-2" d="M172,184.56a1544.66,1544.66,0,0,0-48.73,197.21q-4.59,25.75-8.29,51.85,8.34-11,17-21.68A962.27,962.27,0,0,1,242.26,297L183.7,182Q177.83,183.31,172,184.56Z"/><path class="cls-2" d="M211.86,174.46a826.91,826.91,0,0,0,95.61-32.23A977.44,977.44,0,0,0,236.81,71.4q-18.69,15.25-36.37,31.54-12.37,32.57-23.18,65.26L184,181.39Q198,178.17,211.86,174.46Z"/><path class="cls-2" d="M199.61,103.72q-9.3,8.61-18.31,17.51Q172,130.44,162.93,140l14,27.54Q187.52,135.6,199.61,103.72Z"/><path class="cls-2" d="M219.17,55.84q-9.55,23-18.34,46.07Q218.13,86,236.44,71.06,227.91,63.37,219.17,55.84Z"/><path class="cls-2" d="M18.27,201.71q13.45,45.43,30.52,90c1.19-2,2.37-4.05,3.58-6.05a867.18,867.18,0,0,1,62.9-91.21,778.56,778.56,0,0,1-90.19,7.12Q21.67,201.69,18.27,201.71Z"/><path class="cls-2" d="M177,168.87c-.43,1.32-.88,2.63-1.31,3.95q-1.83,5.6-3.6,11.19,5.67-1.22,11.34-2.51Z"/><path class="cls-2" d="M700.55,44.84l5.13-1.7L708.17,38Z"/><path class="cls-3" d="M213.12,703c.15.09.3.18.46.26q24.85-21.82,48.9-44.46l-.32-.39Q238.07,681.07,213.12,703Z"/><path class="cls-3" d="M481.34,414.27c-.07-.17-.15-.35-.23-.52Q459.92,441.86,438,468.88q-32.72,40.35-67.57,78.92l.24.48q34.86-38.6,67.72-79.08Q460.2,442.3,481.34,414.27Z"/><path class="cls-3" d="M705.68,43.14l.66-.22c.93-2,1.88-3.89,2.81-5.84l-1,.89Z"/><path class="cls-3" d="M726.52,0H726q-8.51,18.54-17.23,36.77c.33-.29.66-.58,1-.88Q718.22,18.11,726.52,0Z"/><path class="cls-3" d="M285.07,636.48q-11.16,10.86-22.54,21.57l.31.39q11.39-10.73,22.58-21.6,43.53-42.39,84.89-88.16l-.24-.48Q328.76,593.91,285.07,636.48Z"/><path class="cls-3" d="M695.29,64.45A2284.84,2284.84,0,0,1,574.94,278.5c-29.54,46.38-60.85,91.5-93.48,134.79.07.18.15.35.23.53,32.7-43.37,64.07-88.58,93.68-135A2285.79,2285.79,0,0,0,695.73,64.67q5.19-10.5,10.3-21.12l-.66.22Q700.36,54.15,695.29,64.45Z"/><path class="cls-3" d="M200.42,714h.77q6-5.19,12-10.43l-.46-.26Q206.6,708.7,200.42,714Z"/><path class="cls-3" d="M0,555.23v.65q12.69,10.5,25.57,20.72c.07-.16.15-.31.23-.46Q12.79,565.84,0,555.23Z"/><path class="cls-3" d="M26.2,576.46c-.08.15-.16.3-.23.45Q61.86,605.35,99,631.34c0-.2,0-.4,0-.6Q62,604.85,26.2,576.46Z"/><path class="cls-3" d="M131,652.47Q115.17,642,99.54,631.08c0,.2,0,.4,0,.6q15.51,10.83,31.18,21.21,40,26.48,82,50.44l.46.26q9.25,5.28,18.58,10.43h1q-9.66-5.32-19.22-10.78c-.16-.08-.31-.17-.46-.26Q171.17,679,131,652.47Z"/><path class="cls-3" d="M115.47,437.37c-.29-.53-.57-1.06-.85-1.59,0,.28-.08.56-.11.84.16.31.32.62.49.93Z"/><path class="cls-3" d="M114.1,435.87l.06-.41c0,.08-.11.15-.16.22A1.74,1.74,0,0,1,114.1,435.87Z"/><path class="cls-3" d="M186.87,555.63A1372.78,1372.78,0,0,1,115.7,437.81l-.47.18a1376,1376,0,0,0,71.22,117.92c23.21,34.43,48.54,68.69,75.71,102.48l.32.39Q284.89,686.65,309,714h.66q-24.19-27.51-46.77-55.58l-.31-.39C235.37,624.28,210.06,590,186.87,555.63Z"/><path class="cls-3" d="M18.27,201.71h-.52q13.53,45.71,30.71,90.58l.33-.55Q31.75,247.22,18.27,201.71Z"/><path class="cls-3" d="M81.21,368.7Q63.83,331.07,49,292.35l-.32.55q14.76,38.49,32.06,76,15.38,33.3,33,66.28l.33-.44Q96.57,401.92,81.21,368.7Z"/><path class="cls-3" d="M8.32,166.23Q3.92,149.55,0,132.65v2.2q3.72,15.84,7.83,31.51,4.61,17.46,9.77,34.85h.51Q13,183.76,8.32,166.23Z"/><path class="cls-3" d="M370.67,548.28l-.24-.48L276,362.19l-.44.24L370.07,548.2l.24.48L442.2,690l.39-.34Z"/><path class="cls-3" d="M176.94,167.57l-14-27.54-.37.39,14.16,27.82C176.8,168,176.87,167.8,176.94,167.57Z"/><path class="cls-3" d="M184,181.39l-6.71-13.19c-.07.22-.14.45-.22.67l6.43,12.63Z"/><path class="cls-3" d="M93.33,3.25,93,3.62l69.36,136.32c.13-.12.24-.26.37-.39Z"/><path class="cls-3" d="M454.45,714H455l-12.19-23.94-.38.34Z"/><path class="cls-3" d="M91.67,0h-.56l1.61,3.15.37-.37Z"/><path class="cls-3" d="M183.7,182,242.26,297l.39-.34L184.21,181.85Z"/><path class="cls-3" d="M275.75,361.75l-32.87-64.6-.39.34L275.31,362Z"/><path class="cls-3" d="M149.13,0h-.86q36.63,26.3,70.5,55.5L219,55Q185.44,26.12,149.13,0Z"/><path class="cls-3" d="M236.44,71.06l.39-.32Q228.21,63,219.37,55.36c-.06.16-.13.32-.2.48Q227.9,63.37,236.44,71.06Z"/><path class="cls-3" d="M445.09,338.32q-16.35-30.58-34.6-59.78l-.41.29q18.21,29.15,34.57,59.72,19.41,36.33,36.46,75.2c.08.17.16.35.23.52a1214.72,1214.72,0,0,1,52.55,144.61q4.74,16.1,9.13,32.6l.4-.44q-4.35-16.32-9-32.3a1214.56,1214.56,0,0,0-52.68-144.92c-.08-.18-.16-.35-.23-.53Q464.45,374.61,445.09,338.32Z"/><path class="cls-3" d="M410.23,278.12q-23.09-36.92-49-71.38l-.42.28q25.9,34.41,49,71.38Z"/><path class="cls-3" d="M307.47,142.23l.49-.2A976.44,976.44,0,0,0,237.2,71.08l-.39.32A977.44,977.44,0,0,1,307.47,142.23Z"/><path class="cls-3" d="M570,714h.51c-7.47-42.19-16.49-83.08-27-122.41l-.4.44C553.61,631.24,562.59,672,570,714Z"/><path class="cls-3" d="M315.75,151.54Q339,178.11,360.5,206.62l.42-.28q-21.48-28.5-44.8-55.13-3.87-4.41-7.81-8.78l-.49.2C310.48,145.59,313.13,148.55,315.75,151.54Z"/><path class="cls-3" d="M96.52,0h-.7L93.09,2.78l-.37.37Q47.38,49,0,88.33V89Q47.6,49.43,93,3.62l.37-.37Z"/><path class="cls-3" d="M52.79,286A870.6,870.6,0,0,1,116,194.39l-.71.1a867.18,867.18,0,0,0-62.9,91.21c-1.21,2-2.39,4-3.58,6.05l-.33.55A993.53,993.53,0,0,0,0,385.79V387A993.14,993.14,0,0,1,48.69,292.9l.32-.55C50.27,290.21,51.52,288.07,52.79,286Z"/><path class="cls-3" d="M200.83,101.91l-.39,1Q218.1,86.64,236.81,71.4l.39-.32A803.62,803.62,0,0,1,339.94,0h-1A802.34,802.34,0,0,0,236.83,70.74l-.39.32Q218.16,86,200.83,101.91Z"/><path class="cls-3" d="M162.56,140.42l.37-.39q9.06-9.59,18.37-18.8,9-8.91,18.31-17.51c.14-.36.27-.72.41-1.07q-9.71,9-19.07,18.22t-18.26,18.68c-.13.13-.24.27-.37.39q-24.27,25.71-46.61,54l.72-.09Q138.52,165.9,162.56,140.42Z"/><path class="cls-3" d="M25.08,201.61a778.56,778.56,0,0,0,90.19-7.12l.71-.1q27.86-3.85,55.4-9.71l.18-.55q-27.39,5.84-55.13,9.7l-.72.09a777.4,777.4,0,0,1-90.64,7.19c-2.31,0-4.63.06-7,.09H17.6q-8.78.09-17.6,0v.5q4.6.06,9.2.06,4.28,0,8.55-.05h.52Q21.67,201.68,25.08,201.61Z"/><path class="cls-3" d="M211.86,174.46Q198,178.18,184,181.39l-.5.11q-5.67,1.31-11.34,2.51l-.18.55q5.88-1.25,11.75-2.6l.51-.11q13.95-3.21,27.78-6.91a828.85,828.85,0,0,0,95.83-32.31l.49-.2a911.33,911.33,0,0,0,90.13-42.58c50.84-27.48,101.7-61,151.63-99.85h-.82c-49.75,38.69-100.4,72-151,99.41A909.08,909.08,0,0,1,308,142l-.49.2A826.91,826.91,0,0,1,211.86,174.46Z"/><path class="cls-3" d="M111,439.63l2.71-1.05c0-.19,0-.38.08-.57l-2.22.86Z"/><path class="cls-3" d="M410.08,278.83l.41-.29c35-24,70.51-50.19,107.34-79,62.46-48.87,123.44-101.4,181.79-153.87l-1.2.4c-58.08,52.21-118.75,104.46-180.9,153.08-36.81,28.8-72.34,54.95-107.29,79l-.41.28q-35.51,24.39-70.45,46-32.08,19.86-63.62,37.34l-.44.24a1331.58,1331.58,0,0,1-127.85,62.42q-15.93,6.72-32,13l-.47.18-.66.25c0,.19,0,.38-.07.57l1-.38.47-.18q16-6.24,32-12.94a1333.57,1333.57,0,0,0,127.89-62.44l.44-.24q31.61-17.54,63.65-37.35C363,310.39,386.41,295.09,410.08,278.83Z"/><path class="cls-3" d="M708.17,38l1-.89Q729.73,18.5,749.84,0h-.74q-19.47,17.88-39.38,35.89c-.32.3-.65.59-1,.88q-4.66,4.23-9.37,8.46l1.18-.39Z"/><path class="cls-3" d="M0,475.62v.52C36.93,466,73.73,453.94,110.13,440l.57-.76C74.12,453.28,37.12,465.44,0,475.62Z"/><path class="cls-3" d="M860.61,0a1568.22,1568.22,0,0,1-64.37,191.94,1375.48,1375.48,0,0,1-108,210.14A1312.35,1312.35,0,0,1,552.62,581q-4.56,5.06-9.2,10.08l-.4.44a1381.85,1381.85,0,0,1-100.43,98.14l-.39.34Q428.42,702.14,414.25,714H415q13.89-11.65,27.42-23.6l.38-.34a1381.3,1381.3,0,0,0,100.35-98l.4-.44q4.75-5.13,9.42-10.31A1312.54,1312.54,0,0,0,688.61,402.35,1376.08,1376.08,0,0,0,796.7,192.13,1570.74,1570.74,0,0,0,861.13,0Z"/><path class="cls-3" d="M100.47,595a1561.46,1561.46,0,0,1,13.8-156.67c0-.19,0-.38.07-.57.06-.39.11-.78.17-1.18s.07-.56.11-.84.1-.76.16-1.13l-.62.81-.06.41c-.1.71-.19,1.43-.29,2.14,0,.19,0,.38-.08.57A1563,1563,0,0,0,100,595q-.68,17.79-.92,35.72c0,.2,0,.4,0,.6q-.58,41,.91,82.68h.5q-1.5-41.4-.92-82.34c0-.2,0-.4,0-.6Q99.81,613,100.47,595Z"/><path class="cls-3" d="M176.94,167.57c-.07.23-.14.45-.22.67-.48,1.48-1,2.95-1.47,4.43-1.24,3.81-2.47,7.64-3.69,11.46l-.18.55a1546.35,1546.35,0,0,0-48.66,197q-4.65,26.22-8.42,52.77l.63-.83q3.7-26.07,8.29-51.85A1544.66,1544.66,0,0,1,172,184.56l.18-.55q1.77-5.59,3.6-11.19c.43-1.32.88-2.63,1.31-3.95.08-.22.15-.45.22-.67q10.8-32.67,23.18-65.26l.39-1q8.79-23.1,18.34-46.07c.07-.16.14-.32.2-.48Q231,27.54,243.63,0h-.55Q230.5,27.35,219,55l-.21.49Q209,79,200,102.65c-.14.35-.27.71-.41,1.07Q187.54,135.58,176.94,167.57Z"/><path class="cls-3" d="M111,439.63l.57-.76,2.41-3.19c0-.07.11-.14.16-.22l.62-.81q8.59-11.34,17.53-22.39A961.27,961.27,0,0,1,242.49,297.49l.39-.34q15.76-13.92,32.2-27.3C302,248,330.65,227,360.8,207l.42-.28Q404,178.44,450.59,153c63-34.4,132.57-65.53,206.8-92.53q20.19-7.34,41-14.35l1.2-.4,5.75-1.9.66-.22C754.12,27.61,804.65,13,857.08,0H855C803.43,12.88,753.7,27.24,706.34,42.92l-.66.22-5.13,1.7-1.18.39Q678,52.42,657.22,60C583,87,513.37,118.1,450.35,152.51q-46.56,25.43-89.43,53.83l-.42.28q-45.24,30-85.74,62.84-16.39,13.32-32.11,27.23l-.39.34A962.27,962.27,0,0,0,131.92,411.94q-8.65,10.69-17,21.68l-.63.83-.23.3-.33.44c-1,1.34-2,2.68-3,4l-.57.76A923.91,923.91,0,0,0,25.8,576.14c-.08.15-.16.3-.23.46-.76,1.49-1.53,3-2.28,4.49Q11,605.79,0,631.61v1.28q11.21-26.34,23.74-51.58c.73-1.47,1.49-2.93,2.23-4.4.07-.15.15-.3.23-.45A924.09,924.09,0,0,1,111,439.63Z"/><path class="cls-3" d="M0,696.37q27.23,7.9,54,17.65h1.47Q28,704,0,695.85Z"/></g></g></g></svg>