<svg xmlns="http://www.w3.org/2000/svg" viewBox="0 0 18 14.14"><defs><style>.cls-1{fill:#93a4be;}</style></defs><title>Asset 96</title><g id="Layer_2" data-name="Layer 2"><g id="Layer_1-2" data-name="Layer 1"><path class="cls-1" d="M18,4.56v8a1.6,1.6,0,0,1-1.61,1.6H1.61a1.55,1.55,0,0,1-1.14-.47A1.55,1.55,0,0,1,0,12.54v-8a5,5,0,0,0,1,.87C3.44,7.08,5.1,8.24,6,8.9q.57.42.93.66a5.52,5.52,0,0,0,.95.48,2.94,2.94,0,0,0,1.1.25H9a2.94,2.94,0,0,0,1.1-.25,5.52,5.52,0,0,0,1-.48q.36-.24.93-.66,1.71-1.23,5-3.47A5.63,5.63,0,0,0,18,4.56Zm0-2.95a2.61,2.61,0,0,1-.49,1.51,4.68,4.68,0,0,1-1.23,1.24c-2.52,1.75-4.08,2.84-4.7,3.26l-.43.31c-.21.16-.39.28-.54.38s-.32.21-.52.33a3,3,0,0,1-.58.27A1.61,1.61,0,0,1,9,9H9a1.61,1.61,0,0,1-.5-.09,3,3,0,0,1-.58-.27c-.2-.12-.38-.23-.52-.33s-.33-.22-.54-.38l-.43-.31L3.79,5.79,1.73,4.36A5,5,0,0,1,.55,3.2,2.33,2.33,0,0,1,0,1.83,2,2,0,0,1,.42.52,1.41,1.41,0,0,1,1.61,0H16.39a1.56,1.56,0,0,1,1.13.47A1.56,1.56,0,0,1,18,1.61Z"/></g></g></svg>