<svg width="33px" height="33px" viewBox="0 0 33 33" version="1.1" xmlns="http://www.w3.org/2000/svg" xmlns:xlink="http://www.w3.org/1999/xlink">
    <!-- Generator: Sketch 49.3 (51167) - http://www.bohemiancoding.com/sketch -->
    <title>Group 2</title>
    <desc>Created with Sketch.</desc>
    <defs/>
    <g id="Page-1" stroke="none" stroke-width="1" fill="none" fill-rule="evenodd">
        <g id="Group-2" fill-rule="nonzero">
            <path d="M14.39,10.49 L16.67,8.21 L18.97,10.51 L22.23,10.51 L22.23,13.77 L24.53,16.07 L22.23,18.37 C22.23,19.6513006 23.2686994,20.69 24.55,20.69 L31.91,20.69 C34.1440703,13.2469763 30.6743922,5.27910499 23.7035405,1.84444377 C16.7326888,-1.59021744 8.30059142,0.513439854 3.76,6.82 C3.25849265,7.52879747 3.19474868,8.45830427 3.5947998,9.22892907 C3.99485092,9.99955386 4.79172687,10.4822908 5.66,10.48 L14.39,10.49 Z" id="Shape" fill="#FFFFFF"/>
            <path d="M19,21.64 L16.7,23.94 L14.4,21.64 L11.14,21.64 L11.14,18.38 L8.84,16.08 L11.14,13.78 C11.14,13.1593934 10.893465,12.5642053 10.4546299,12.1253701 C10.0157947,11.686535 9.42060659,11.44 8.8,11.44 L1.49,11.44 C-0.830111386,18.9234377 2.64328551,26.9820587 9.67671039,30.4339699 C16.7101353,33.8858811 25.2097111,31.7034356 29.71,25.29 C30.2011138,24.5801633 30.2575433,23.6563613 29.8564776,22.8920268 C29.455412,22.1276924 28.6631687,21.6492104 27.8,21.65 L19,21.64 Z" id="Shape" fill="#FFFFFF"/>
            <polygon id="Shape" fill="#4DBD97" points="20.92 14.38 20.91 14.37 20.91 11.89 18.44 11.89 18.43 11.89 16.67 10.13 14.92 11.88 14.91 11.89 12.43 11.89 12.43 14.36 12.43 14.37 10.67 16.13 12.42 17.88 12.43 17.89 12.43 20.37 14.9 20.37 14.91 20.37 16.67 22.13 18.42 20.38 18.43 20.37 20.91 20.37 20.91 17.9 20.91 17.89 22.67 16.13"/>
        </g>
    </g>
</svg>