<svg xmlns="http://www.w3.org/2000/svg" viewBox="0 0 66.52 53.75"><defs><style>.cls-1{fill:#32fc8d;}.cls-2{fill:#0be370;}.cls-3{fill:#14c767;}.cls-4{fill:#00ab6c;}</style></defs><title>Asset 136</title><g id="Layer_2" data-name="Layer 2"><g id="Layer_1-2" data-name="Layer 1"><path class="cls-1" d="M46.19.23c-1-.49-1.84,0-1.84,1.08v43l18.49,8.83c2,1,3.68.3,3.68-1.5V10.23a.47.47,0,0,0-.26-.41L46.19.25v0Z"/><path class="cls-2" d="M22.17,33.74,43.27,1A2.37,2.37,0,0,1,46.19.21L66.28,9.8a.21.21,0,0,1,.1.32l-22,34.21L22.17,33.74Z"/><path class="cls-3" d="M3.07.81C1.38,0,.81.6,1.8,2.14l20.37,31.6L44.35,44.32,22.22,10a.28.28,0,0,0-.13-.11L3.07.81Z"/><path class="cls-4" d="M22.17,51.63c0,1.8-1.38,2.62-3.07,1.81L1.84,45.2A3.47,3.47,0,0,1,0,42.36V2C0,.53,1.11-.13,2.46.52l19.6,9.36a.19.19,0,0,1,.11.18V51.62Z"/></g></g></svg>