<svg xmlns="http://www.w3.org/2000/svg" viewBox="0 0 32.48 32.48"><defs><style>.cls-1{fill:#3a446a;}.cls-2{fill:#fff;}</style></defs><title>Asset 56</title><g id="Layer_2" data-name="Layer 2"><g id="Layer_1-2" data-name="Layer 1"><circle class="cls-1" cx="16.24" cy="16.24" r="16.24"/><path class="cls-2" d="M20.93,15.79a3.88,3.88,0,0,1,1.86-3.28,4,4,0,0,0-3.15-1.71c-1.33-.14-2.61.79-3.29.79s-1.73-.78-2.85-.75A4.21,4.21,0,0,0,10,13c-1.52,2.65-.38,6.54,1.08,8.68.73,1,1.59,2.21,2.71,2.17s1.5-.7,2.83-.7,1.69.7,2.84.68,1.91-1.06,2.62-2.11a8.43,8.43,0,0,0,1.2-2.45A3.77,3.77,0,0,1,20.93,15.79Z"/><path class="cls-2" d="M18.77,9.39a3.79,3.79,0,0,0,.88-2.75A3.83,3.83,0,0,0,17.12,8a3.63,3.63,0,0,0-.9,2.65A3.22,3.22,0,0,0,18.77,9.39Z"/></g></g></svg>