<svg xmlns="http://www.w3.org/2000/svg" viewBox="0 0 32.48 32.48"><defs><style>.cls-1,.cls-5{fill:#3a446a;}.cls-2,.cls-3,.cls-4{fill:#fff;}.cls-2,.cls-3,.cls-5{stroke:#3a446a;}.cls-2{stroke-width:0.81px;}.cls-3,.cls-5{stroke-width:0.4px;}</style></defs><title>Asset 57</title><g id="Layer_2" data-name="Layer 2"><g id="Layer_1-2" data-name="Layer 1"><circle class="cls-1" cx="16.24" cy="16.24" r="16.24"/><g id="b"><ellipse class="cls-2" cx="16.24" cy="12.8" rx="5.09" ry="4.7"/><rect class="cls-2" x="11.15" y="11.63" width="10.18" height="10.18" rx="1.23" ry="1.23"/></g><g id="a"><path class="cls-3" d="M12.9,6.86h0a.36.36,0,0,0-.14.49l2,3.57a.36.36,0,0,0,.5.14h0a.36.36,0,0,0,.14-.49L13.4,7A.36.36,0,0,0,12.9,6.86Z"/><path id="c" class="cls-3" d="M22.9,12.8h0a1.34,1.34,0,0,0-1.35,1.34V18.9a1.34,1.34,0,0,0,1.35,1.34h0a1.34,1.34,0,0,0,1.34-1.34V14.14A1.34,1.34,0,0,0,22.9,12.8Z"/><path id="c-2" data-name="c" class="cls-3" d="M18.14,18.23h0a1.34,1.34,0,0,0-1.34,1.34v4.76a1.34,1.34,0,0,0,1.34,1.34h0a1.34,1.34,0,0,0,1.34-1.34V19.57A1.34,1.34,0,0,0,18.14,18.23Z"/></g><g id="a-2" data-name="a"><path class="cls-3" d="M19.57,6.86h0a.36.36,0,0,1,.15.49l-2,3.57a.36.36,0,0,1-.5.14h0a.36.36,0,0,1-.14-.49l2-3.57A.35.35,0,0,1,19.57,6.86Z"/><path id="c-3" data-name="c" class="cls-3" d="M9.58,12.8h0a1.34,1.34,0,0,1,1.34,1.34V18.9a1.34,1.34,0,0,1-1.34,1.34h0A1.34,1.34,0,0,1,8.24,18.9V14.14A1.34,1.34,0,0,1,9.58,12.8Z"/><path id="c-4" data-name="c" class="cls-3" d="M14.34,18.23h0a1.34,1.34,0,0,1,1.34,1.34v4.76a1.34,1.34,0,0,1-1.34,1.34h0A1.35,1.35,0,0,1,13,24.33V19.57A1.35,1.35,0,0,1,14.34,18.23Z"/></g><g id="b-2" data-name="b"><ellipse class="cls-4" cx="16.24" cy="12.8" rx="5.09" ry="4.7"/><rect class="cls-4" x="11.15" y="11.63" width="10.18" height="10.18" rx="1.23" ry="1.23"/></g><path class="cls-5" d="M10.92,13H21.55"/><circle class="cls-5" cx="13.89" cy="10.51" r="0.22"/><circle class="cls-5" cx="18.59" cy="10.51" r="0.22"/></g></g></svg>