<svg xmlns="http://www.w3.org/2000/svg" viewBox="0 0 14.26 11.52"><defs><style>.cls-1{fill:#c1c1c1;}.cls-2{fill:#dfdfdf;}.cls-3{fill:#eee;}.cls-4{fill:#fff;}</style></defs><title>Asset 35</title><g id="Layer_2" data-name="Layer 2"><g id="Layer_1-2" data-name="Layer 1"><path class="cls-1" d="M9.9.05a.25.25,0,0,0-.39.23V9.5l4,1.9c.44.21.79.06.79-.33V2.19a.08.08,0,0,0-.06-.08L9.9.05Z"/><path class="cls-2" d="M4.75,7.23l4.53-7A.5.5,0,0,1,9.9,0L14.21,2.1a0,0,0,0,1,0,.07L9.51,9.5,4.75,7.23Z"/><path class="cls-3" d="M.66.17C.3,0,.17.13.39.46L4.75,7.23,9.51,9.5,4.76,2.14s0,0,0,0L.66.17Z"/><path class="cls-4" d="M4.75,11.07c0,.39-.29.56-.65.39L.39,9.69A.75.75,0,0,1,0,9.08V.42C0,.11.24,0,.53.11l4.2,2s0,0,0,0v8.91Z"/></g></g></svg>