<svg xmlns="http://www.w3.org/2000/svg" viewBox="0 0 13.88 11.62"><defs><style>.cls-1{fill:#fff;}.cls-1,.cls-3,.cls-4{stroke:#fff;}.cls-1,.cls-3,.cls-4,.cls-5,.cls-6{stroke-width:0.43px;}.cls-2{fill:#323c45;}.cls-3,.cls-4,.cls-5,.cls-6{fill:none;}.cls-3,.cls-6{stroke-linecap:round;}.cls-3{stroke-linejoin:round;}.cls-5,.cls-6{stroke:#323c45;}</style></defs><title>Asset 37</title><g id="Layer_2" data-name="Layer 2"><g id="Layer_1-2" data-name="Layer 1"><path id="path50" d="M2.86,5.68A1.32,1.32,0,1,1,1.54,4.36,1.32,1.32,0,0,1,2.86,5.68"/><g id="g52"><path id="path54" class="cls-1" d="M2.86,5.68A1.32,1.32,0,1,1,1.54,4.36,1.32,1.32,0,0,1,2.86,5.68Z"/></g><path id="path58" class="cls-2" d="M13.66,5.68a1.32,1.32,0,1,1-1.32-1.32,1.32,1.32,0,0,1,1.32,1.32"/><g id="g60"><path id="path62" class="cls-1" d="M13.66,5.68a1.32,1.32,0,1,1-1.32-1.32A1.32,1.32,0,0,1,13.66,5.68Z"/></g><g id="g64"><path id="path66" class="cls-3" d="M10.6,1,8,.42,7,3.49"/></g><path id="path78" class="cls-2" d="M12.72,1.26a1,1,0,0,1-2.08,0,1,1,0,1,1,2.08,0"/><g id="g80"><path id="path82" class="cls-4" d="M12.72,1.26a1,1,0,0,1-2.08,0,1,1,0,1,1,2.08,0Z"/></g><path id="path94" class="cls-2" d="M12.89,7.5c0,2.15-2.68,3.9-6,3.9s-6-1.75-6-3.9,2.68-3.91,6-3.91,6,1.75,6,3.91"/><g id="g96"><path id="path98" class="cls-1" d="M12.89,7.5c0,2.15-2.68,3.9-6,3.9s-6-1.75-6-3.9,2.68-3.91,6-3.91S12.89,5.34,12.89,7.5Z"/></g><path id="path158" class="cls-2" d="M5.53,6.73a.7.7,0,0,1-1.4,0,.7.7,0,0,1,1.4,0"/><g id="g160"><path id="path162" class="cls-5" d="M5.53,6.73a.7.7,0,0,1-1.4,0,.7.7,0,0,1,1.4,0Z"/></g><path id="path166" class="cls-2" d="M9.75,6.73a.7.7,0,1,1-.7-.7.7.7,0,0,1,.7.7"/><g id="g168"><path id="path170" class="cls-5" d="M9.75,6.73a.7.7,0,1,1-.7-.7A.7.7,0,0,1,9.75,6.73Z"/></g><g id="g172"><path id="path174" class="cls-6" d="M4.87,9.29a2.91,2.91,0,0,0,2.06.62"/></g><g id="g176"><path id="path178" class="cls-6" d="M9,9.29A2.94,2.94,0,0,1,7,9.91"/></g></g></g></svg>