<svg xmlns="http://www.w3.org/2000/svg" viewBox="0 0 521.64 429.07"><defs><style>.cls-1{opacity:0.8;}.cls-2{fill:#899bc7;}.cls-3{fill:#7785ad;}.cls-4{fill:#aabded;}.cls-5{fill:#95a9d9;}.cls-6{fill:#7987ad;}.cls-7{fill:#69759b;}.cls-8{fill:#58637f;}.cls-9{fill:#1c1c1c;}.cls-10{fill:none;stroke:#0d1628;stroke-linecap:round;stroke-linejoin:round;stroke-width:0.25px;}.cls-11,.cls-12,.cls-13,.cls-19,.cls-25,.cls-29,.cls-35{fill:#fff;}.cls-11{opacity:0.2;}.cls-12{opacity:0.3;}.cls-13,.cls-19,.cls-25,.cls-29,.cls-35{opacity:0.7;font-size:5.51px;font-family:AcuminPro-Regular, Acumin Pro;}.cls-13,.cls-22{letter-spacing:0.17em;}.cls-14{letter-spacing:0.16em;}.cls-15{letter-spacing:0.17em;}.cls-16,.cls-29{letter-spacing:0.16em;}.cls-17{letter-spacing:0.17em;}.cls-18{letter-spacing:0.22em;}.cls-19{letter-spacing:0.15em;}.cls-20{letter-spacing:0.08em;}.cls-21{letter-spacing:0.08em;}.cls-23{letter-spacing:0.19em;}.cls-24{letter-spacing:0.19em;}.cls-25,.cls-40{letter-spacing:0.16em;}.cls-26{letter-spacing:0.16em;}.cls-27{letter-spacing:0.19em;}.cls-28{letter-spacing:0.17em;}.cls-30{letter-spacing:0.17em;}.cls-31{letter-spacing:0.15em;}.cls-32{letter-spacing:0.18em;}.cls-33{letter-spacing:0.17em;}.cls-34{fill:#50be97;}.cls-35{letter-spacing:0.15em;}.cls-36{letter-spacing:0.16em;}.cls-37{letter-spacing:0.09em;}.cls-38{letter-spacing:0.15em;}.cls-39{letter-spacing:0.18em;}.cls-41{letter-spacing:0.17em;}</style></defs><title>Asset 5</title><g id="Layer_2" data-name="Layer 2"><g id="Layer_1-2" data-name="Layer 1"><g class="cls-1"><polygon id="path4666" class="cls-2" points="147.81 311.17 115.39 125.64 280.12 189.19 147.81 311.17"/><polygon id="path4668" class="cls-3" points="147.81 311.17 57.65 244.76 115.39 125.64 147.81 311.17"/><polygon id="path4670" class="cls-4" points="115.39 125.64 271.73 47.4 280.12 189.19 115.39 125.64"/><polygon id="path4672" class="cls-5" points="115.39 125.64 134.23 81.74 271.73 47.4 115.39 125.64"/><polygon id="path4674" class="cls-6" points="324.2 347.59 147.81 311.17 280.12 189.19 324.2 347.59"/><polygon id="path4676" class="cls-7" points="324.2 347.59 186.7 381.94 147.81 311.17 324.2 347.59"/><polygon id="path4678" class="cls-3" points="271.73 47.4 400.78 184.58 280.12 189.19 271.73 47.4"/><polygon id="path4680" class="cls-7" points="400.78 184.58 324.2 347.59 280.12 189.19 400.78 184.58"/><polygon id="path4682" class="cls-8" points="57.65 244.76 147.81 311.17 186.7 381.94 57.65 244.76"/><polygon id="path4684" class="cls-9" points="134.23 81.74 115.39 125.64 57.65 244.76 134.23 81.74"/></g><polygon id="path4666-2" data-name="path4666" class="cls-10" points="71.12 156.62 288.93 31.36 284.37 266.88 71.12 156.62"/><polygon id="path4668-2" data-name="path4668" class="cls-10" points="71.12 156.62 113.26 13.29 288.93 31.36 71.12 156.62"/><polygon id="path4670-2" data-name="path4670" class="cls-10" points="288.93 31.36 458.31 191.7 284.37 266.88 288.93 31.36"/><polygon id="path4672-2" data-name="path4672" class="cls-10" points="288.93 31.36 352.56 34.97 458.31 191.7 288.93 31.36"/><polygon id="path4674-2" data-name="path4674" class="cls-10" points="105.88 394.37 71.12 156.62 284.37 266.88 105.88 394.37"/><polygon id="path4676-2" data-name="path4676" class="cls-10" points="105.88 394.37 0.13 237.64 71.12 156.62 105.88 394.37"/><polygon id="path4678-2" data-name="path4678" class="cls-10" points="458.31 191.7 345.17 416.05 284.37 266.88 458.31 191.7"/><polygon id="path4680-2" data-name="path4680" class="cls-10" points="345.17 416.05 105.88 394.37 284.37 266.88 345.17 416.05"/><polygon id="path4682-2" data-name="path4682" class="cls-10" points="113.26 13.29 71.12 156.62 0.13 237.64 113.26 13.29"/><polygon id="path4684-2" data-name="path4684" class="cls-10" points="352.56 34.97 288.93 31.36 113.26 13.29 352.56 34.97"/><polygon id="path4666-3" data-name="path4666" class="cls-10" points="76.37 285.41 141.82 42.82 305.13 212.59 76.37 285.41"/><polygon id="path4668-3" data-name="path4668" class="cls-10" points="76.37 285.41 4.83 154.26 141.82 42.82 76.37 285.41"/><polygon id="path4670-3" data-name="path4670" class="cls-10" points="141.82 42.82 374.96 36.43 305.13 212.59 141.82 42.82"/><polygon id="path4672-3" data-name="path4672" class="cls-10" points="141.82 42.82 189.37 0.39 374.96 36.43 141.82 42.82"/><polygon id="path4674-3" data-name="path4674" class="cls-10" points="269.06 428.95 76.37 285.41 305.13 212.59 269.06 428.95"/><polygon id="path4676-3" data-name="path4676" class="cls-10" points="269.06 428.95 83.47 392.9 76.37 285.41 269.06 428.95"/><polygon id="path4678-3" data-name="path4678" class="cls-10" points="374.96 36.43 453.6 275.07 305.13 212.59 374.96 36.43"/><polygon id="path4680-3" data-name="path4680" class="cls-10" points="453.6 275.07 269.06 428.95 305.13 212.59 453.6 275.07"/><polygon id="path4682-3" data-name="path4682" class="cls-10" points="4.83 154.26 76.37 285.41 83.47 392.9 4.83 154.26"/><polygon id="path4684-3" data-name="path4684" class="cls-10" points="189.37 0.39 141.82 42.82 4.83 154.26 189.37 0.39"/><circle class="cls-11" cx="147.68" cy="310.92" r="9.19"/><circle class="cls-12" cx="147.68" cy="310.92" r="7.2"/><circle class="cls-12" cx="147.68" cy="310.92" r="5.36"/><circle class="cls-7" cx="147.68" cy="310.92" r="3.06"/><text class="cls-13" transform="translate(162.19 307.85)">I<tspan class="cls-14" x="2.44" y="0">DE</tspan><tspan class="cls-15" x="11.47" y="0">N</tspan><tspan class="cls-16" x="16.5" y="0">T</tspan><tspan class="cls-17" x="20.46" y="0">I</tspan><tspan class="cls-18" x="22.9" y="0">T</tspan><tspan class="cls-16" x="27.19" y="0">Y</tspan></text><circle class="cls-11" cx="58.82" cy="244.76" r="9.19"/><circle class="cls-12" cx="58.82" cy="244.76" r="7.2"/><circle class="cls-12" cx="58.82" cy="244.76" r="5.36"/><circle class="cls-7" cx="58.82" cy="244.76" r="3.06"/><text class="cls-19" transform="translate(73.33 241.39)">D<tspan class="cls-20" x="4.81" y="0">A</tspan><tspan class="cls-21" x="8.87" y="0">T</tspan><tspan class="cls-16" x="12.4" y="0">A MO</tspan><tspan class="cls-22" x="29.89" y="0">N</tspan><tspan class="cls-23" x="34.9" y="0">E</tspan><tspan class="cls-14" x="39.24" y="0">TI</tspan><tspan class="cls-24" x="45.6" y="0">Z</tspan><tspan class="cls-20" x="49.95" y="0">A</tspan><tspan class="cls-16" x="54" y="0">TION</tspan></text><circle class="cls-11" cx="279.49" cy="188.75" r="9.19"/><circle class="cls-12" cx="279.49" cy="188.75" r="7.2"/><circle class="cls-12" cx="279.49" cy="188.75" r="5.36"/><circle class="cls-7" cx="279.49" cy="188.75" r="3.06"/><text class="cls-25" transform="translate(211.05 149.12)">S<tspan class="cls-14" x="4.21" y="0">EC</tspan><tspan class="cls-26" x="13.05" y="0">R</tspan><tspan class="cls-27" x="17.5" y="0">E</tspan><tspan class="cls-16" x="21.83" y="0">T </tspan><tspan x="28.07" y="0">S</tspan><tspan class="cls-14" x="32.27" y="0">H</tspan><tspan x="37.18" y="0">A</tspan><tspan class="cls-26" x="41.69" y="0">R</tspan><tspan class="cls-28" x="46.14" y="0">I</tspan><tspan class="cls-14" x="48.57" y="0">NG</tspan></text><circle class="cls-11" cx="271.15" cy="47.21" r="9.19"/><circle class="cls-12" cx="271.15" cy="47.21" r="7.2"/><circle class="cls-12" cx="271.15" cy="47.21" r="5.36"/><circle class="cls-7" cx="271.15" cy="47.21" r="3.06"/><text class="cls-29" transform="translate(289.93 4.68)">ENC<tspan class="cls-30" x="13.82" y="0">R</tspan><tspan class="cls-31" x="18.31" y="0">Y</tspan><tspan class="cls-32" x="22.41" y="0">P</tspan><tspan x="26.85" y="0">TED </tspan><tspan class="cls-22" x="42.12" y="0">C</tspan><tspan class="cls-14" x="46.82" y="0">O</tspan><tspan class="cls-28" x="51.84" y="0">M</tspan><tspan class="cls-14" x="57.54" y="0">P</tspan><tspan class="cls-33" x="61.89" y="0">U</tspan><tspan x="66.77" y="0">T</tspan><tspan class="cls-22" x="70.73" y="0">I</tspan><tspan class="cls-14" x="73.17" y="0">NG</tspan></text><circle class="cls-11" cx="284.57" cy="267.03" r="9.19"/><circle class="cls-12" cx="284.57" cy="267.03" r="7.2"/><circle class="cls-12" cx="284.57" cy="267.03" r="5.36"/><circle class="cls-34" cx="284.57" cy="267.03" r="3.06"/><text class="cls-35" transform="translate(299.67 274.23)">P<tspan class="cls-36" x="4.32" y="0">R</tspan><tspan class="cls-14" x="8.77" y="0">I</tspan><tspan class="cls-37" x="11.17" y="0">V</tspan><tspan class="cls-38" x="15.22" y="0">A</tspan><tspan class="cls-39" x="19.68" y="0">C</tspan><tspan class="cls-16" x="24.43" y="0">Y</tspan></text><circle class="cls-11" cx="452.96" cy="275.28" r="9.19"/><circle class="cls-12" cx="452.96" cy="275.28" r="7.2"/><circle class="cls-12" cx="452.96" cy="275.28" r="5.36"/><circle class="cls-34" cx="452.96" cy="275.28" r="3.06"/><text class="cls-29" transform="translate(443.77 307.85)">ON CH<tspan class="cls-40" x="21.86" y="0">A</tspan><tspan class="cls-22" x="26.36" y="0">I</tspan><tspan class="cls-14" x="28.8" y="0">N </tspan><tspan class="cls-36" x="36.06" y="0">R</tspan><tspan class="cls-14" x="40.51" y="0">EP</tspan><tspan class="cls-41" x="49.04" y="0">U</tspan><tspan class="cls-21" x="53.92" y="0">T</tspan><tspan class="cls-20" x="57.44" y="0">A</tspan><tspan x="61.5" y="0">TION</tspan></text></g></g></svg>