<svg xmlns="http://www.w3.org/2000/svg" viewBox="0 0 64.73 54.18"><defs><style>.cls-1{fill:#fff;}.cls-2,.cls-3,.cls-5,.cls-6{fill:none;stroke-width:2.01px;}.cls-2,.cls-3,.cls-6{stroke:#000;}.cls-3,.cls-6{stroke-linecap:round;}.cls-3{stroke-linejoin:round;}.cls-4{fill:#ff4500;}.cls-5{stroke:#ff4500;}</style></defs><title>Asset 134</title><g id="Layer_2" data-name="Layer 2"><g id="Layer_1-2" data-name="Layer 1"><g id="g48"><path id="path50" class="cls-1" d="M13.33,26.49a6.17,6.17,0,1,1-6.17-6.16,6.16,6.16,0,0,1,6.17,6.16"/></g><g id="g52"><path id="path54" class="cls-2" d="M13.33,26.49a6.17,6.17,0,1,1-6.17-6.16A6.16,6.16,0,0,1,13.33,26.49Z"/></g><g id="g56"><path id="path58" class="cls-1" d="M63.72,26.49a6.16,6.16,0,1,1-6.16-6.16,6.16,6.16,0,0,1,6.16,6.16"/></g><g id="g60"><path id="path62" class="cls-2" d="M63.72,26.49a6.16,6.16,0,1,1-6.16-6.16A6.16,6.16,0,0,1,63.72,26.49Z"/></g><g id="g64"><path id="path66" class="cls-3" d="M49.44,4.86,37.12,2,32.59,16.28"/></g><g id="g76"><path id="path78" class="cls-1" d="M59.33,5.86A4.86,4.86,0,1,1,54.48,1a4.86,4.86,0,0,1,4.85,4.86"/></g><g id="g80"><path id="path82" class="cls-2" d="M59.33,5.86A4.86,4.86,0,1,1,54.48,1,4.86,4.86,0,0,1,59.33,5.86Z"/></g><g id="g92"><path id="path94" class="cls-1" d="M60.14,35c0,10.06-12.5,18.21-27.91,18.21S4.32,45,4.32,35s12.5-18.21,27.91-18.21S60.14,24.91,60.14,35"/></g><g id="g96"><path id="path98" class="cls-2" d="M60.14,35c0,10.06-12.5,18.21-27.91,18.21S4.32,45,4.32,35s12.5-18.21,27.91-18.21S60.14,24.91,60.14,35Z"/></g><g id="g156"><path id="path158" class="cls-4" d="M25.8,31.41a3.26,3.26,0,1,1-3.26-3.26,3.26,3.26,0,0,1,3.26,3.26"/></g><g id="g160"><path id="path162" class="cls-5" d="M25.8,31.41a3.26,3.26,0,1,1-3.26-3.26A3.26,3.26,0,0,1,25.8,31.41Z"/></g><g id="g164"><path id="path166" class="cls-4" d="M45.46,31.41a3.26,3.26,0,1,1-3.26-3.26,3.26,3.26,0,0,1,3.26,3.26"/></g><g id="g168"><path id="path170" class="cls-5" d="M45.46,31.41a3.26,3.26,0,1,1-3.26-3.26A3.26,3.26,0,0,1,45.46,31.41Z"/></g><g id="g172"><path id="path174" class="cls-6" d="M22.72,43.35c2.43,2.43,6.36,2.89,9.61,2.89"/></g><g id="g176"><path id="path178" class="cls-6" d="M42,43.35c-2.43,2.43-6.35,2.89-9.6,2.89"/></g></g></g></svg>