<svg xmlns="http://www.w3.org/2000/svg" viewBox="0 0 20.41 18.01"><defs><style>.cls-1{fill:#93a4be;}</style></defs><title>Asset 2</title><g id="Layer_2" data-name="Layer 2"><g id="Layer_1-2" data-name="Layer 1"><path class="cls-1" d="M4.14,16.67h0a.4.4,0,0,1-.27-.16l-2-2.76a.41.41,0,0,1,0-.52c.1-.11,2.63-2.64,5.07-1.65a9.23,9.23,0,0,0,3.27.63c1.2.06,1.86.41,2,1.06a1.16,1.16,0,0,1-.33.92,2.5,2.5,0,0,1-2,.54,12.9,12.9,0,0,0-3.28.16.38.38,0,0,1-.55,0,.4.4,0,0,1,0-.57c.43-.42,2.33-.44,3.86-.38,1,.06,1.3-.15,1.43-.29a.4.4,0,0,0,.11-.25c0-.14-.36-.34-1.22-.38a10.55,10.55,0,0,1-3.54-.69c-1.57-.64-3.32.69-4,1.25l1.59,2.18a9.71,9.71,0,0,1,4.65-.48,7.5,7.5,0,0,0,.94,0h0a.41.41,0,0,1,.4.39.42.42,0,0,1-.4.41l-1,0c-3.42-.24-4.45.51-4.46.52A.44.44,0,0,1,4.14,16.67Z"/><path class="cls-1" d="M10.75,16a.39.39,0,0,1-.28-.11.4.4,0,0,1-.12-.29.39.39,0,0,1,.12-.28.4.4,0,0,1,.56,0,.4.4,0,0,1,0,.57A.41.41,0,0,1,10.75,16Z"/><path class="cls-1" d="M11.64,15.89a.41.41,0,0,1-.39-.31.4.4,0,0,1,.3-.48A5.37,5.37,0,0,0,14.71,13a1.44,1.44,0,0,0,.29-.7,6.51,6.51,0,0,0-2.1,1,.4.4,0,1,1-.43-.67c2-1.3,2.7-1.23,3-1.06a.6.6,0,0,1,.32.53,2.21,2.21,0,0,1-.47,1.37,6.19,6.19,0,0,1-3.61,2.35Z"/><path class="cls-1" d="M2.14,18H2.05a.35.35,0,0,1-.25-.19L.05,14.73a.4.4,0,0,1,.15-.54l1.74-1a.39.39,0,0,1,.53.11l2,2.76a.42.42,0,0,1,.06.31.38.38,0,0,1-.17.26L2.37,18A.46.46,0,0,1,2.14,18ZM.94,14.68l1.34,2.37,1.3-.87L2,14Z"/><path class="cls-1" d="M14.67,6.66a3.18,3.18,0,0,1-1.19-.23,9.74,9.74,0,0,0-3.27-.63c-1.2,0-1.86-.41-2-1.06a1.16,1.16,0,0,1,.33-.92,2.55,2.55,0,0,1,2-.54,12,12,0,0,0,3.28-.16.4.4,0,1,1,.54.58c-.42.43-2.33.44-3.86.38-.94-.06-1.29.16-1.42.29A.42.42,0,0,0,9,4.63c0,.14.37.34,1.22.37a10.5,10.5,0,0,1,3.54.69c1.57.64,3.33-.69,4-1.24L16.16,2.26a9.76,9.76,0,0,1-4.65.48l-.95,0h0a.39.39,0,0,1-.4-.39.39.39,0,0,1,.39-.4c.33,0,.67,0,1,0C15,2.18,16,1.43,16,1.42a.42.42,0,0,1,.31-.07.39.39,0,0,1,.26.15l2,2.77a.38.38,0,0,1,0,.51A6.34,6.34,0,0,1,14.67,6.66Z"/><path class="cls-1" d="M9.66,2.77a.39.39,0,0,1-.39-.4.41.41,0,0,1,.11-.28.42.42,0,0,1,.57,0,.41.41,0,0,1,.11.28.39.39,0,0,1-.11.28A.4.4,0,0,1,9.66,2.77Z"/><path class="cls-1" d="M5.32,6.48a.77.77,0,0,1-.39-.09.59.59,0,0,1-.32-.53,2.12,2.12,0,0,1,.46-1.37A6.13,6.13,0,0,1,8.68,2.14a.4.4,0,0,1,.48.29.39.39,0,0,1-.3.48A5.49,5.49,0,0,0,5.7,5a1.48,1.48,0,0,0-.29.7,6.18,6.18,0,0,0,2.1-1,.4.4,0,0,1,.55.13.39.39,0,0,1-.12.55A5.84,5.84,0,0,1,5.32,6.48Z"/><path class="cls-1" d="M18.27,4.9A.4.4,0,0,1,18,4.74L16,2a.37.37,0,0,1-.07-.3.39.39,0,0,1,.17-.26l2-1.34A.38.38,0,0,1,18.36,0a.46.46,0,0,1,.26.19l1.74,3.09a.4.4,0,0,1-.14.54l-1.75,1A.46.46,0,0,1,18.27,4.9ZM16.84,1.84,18.38,4l1.09-.63L18.13,1Z"/></g></g></svg>