<svg xmlns="http://www.w3.org/2000/svg" viewBox="0 0 322.36 242.46"><defs><style>.cls-1{fill:none;}.cls-2{fill:#93a4be;}</style></defs><title>Asset 65</title><g id="Layer_2" data-name="Layer 2"><g id="Layer_1-2" data-name="Layer 1"><polygon class="cls-1" points="223.93 31.41 233.99 31.14 234.1 25.56 223.93 31.41"/><polygon class="cls-1" points="240.87 31.28 286.1 74.11 297.4 45.61 286.88 30.02 240.87 31.28"/><polygon class="cls-1" points="69.28 204.77 72.62 227.64 73.06 227.5 183.87 192.23 86.27 141.76 69.28 204.77"/><polygon class="cls-1" points="234.32 31.46 231.91 155.83 247.34 171.87 276.77 97.65 285.97 74.44 240.39 31.29 234.32 31.46"/><polygon class="cls-1" points="151.71 72.94 96.23 104.84 86.36 141.43 184.32 192.08 231.16 177.17 231.57 155.96 151.71 72.94"/><polygon class="cls-1" points="57.59 127.19 25.43 163.89 61.92 230.76 68.93 204.75 57.59 127.19"/><polygon class="cls-1" points="231.5 177.06 247.1 172.1 231.9 156.3 231.5 177.06"/><polygon class="cls-1" points="275.96 27.47 137.3 14.91 137.07 15.11 234.29 25.1 275.96 27.47"/><polygon class="cls-1" points="234.33 31.13 240.05 30.97 234.43 25.65 234.33 31.13"/><polygon class="cls-1" points="91.99 10.8 76.22 64.44 135.21 15.25 103.6 12 91.99 10.8"/><polygon class="cls-1" points="233.74 25.38 136.74 15.4 115.47 34.38 223.23 31.43 233.74 25.38"/><polygon class="cls-1" points="234.72 25.46 240.52 30.96 286.65 29.69 285.76 28.36 234.72 25.46"/><path class="cls-1" d="M286,28.1h0l1.06,1.58,15.44-.42L153.61.34l-16,14.26L285.86,28A.19.19,0,0,1,286,28.1Z"/><polygon class="cls-1" points="297.55 45.24 303.76 29.56 287.27 30.01 297.55 45.24"/><polygon class="cls-1" points="173.59 59.98 222.62 31.78 115.41 34.72 151.77 72.52 173.59 59.98"/><polygon class="cls-1" points="75.03 67.31 55.43 83.26 19.89 153.73 25.26 163.58 57.56 126.72 75.03 67.31"/><polygon class="cls-1" points="152.01 72.77 231.58 155.49 233.99 31.47 223.32 31.76 185.91 53.27 152.01 72.77"/><polygon class="cls-1" points="231.16 177.53 184.74 192.3 230.41 215.91 231.16 177.53"/><polygon class="cls-1" points="135.57 14.95 135.79 14.77 119.24 13.27 135.57 14.95"/><polygon class="cls-1" points="237.25 232.11 240.59 212.04 230.79 216.27 237.25 232.11"/><polygon class="cls-1" points="62.33 231.27 74.09 240.03 72.34 228.08 62.33 231.27"/><polygon class="cls-1" points="231.31 187.03 230.75 215.93 240.66 211.65 247.19 172.42 231.49 177.42 231.31 187.03"/><polygon class="cls-1" points="69.15 203.94 85.97 141.61 57.92 127.1 69.15 203.94"/><polygon class="cls-1" points="69.06 205.58 62.21 230.96 72.3 227.75 71.55 222.62 69.06 205.58"/><polygon class="cls-1" points="95.95 104.62 114.73 35.02 75.48 66.94 57.98 126.45 95.95 104.62"/><polygon class="cls-1" points="86.06 141.28 95.83 105.08 58.06 126.8 86.06 141.28"/><polygon class="cls-1" points="151.47 72.69 115.11 34.89 96.36 104.39 151.47 72.69"/><polygon class="cls-1" points="4.18 124.94 19.7 153.37 54.8 83.77 4.18 124.94"/><polygon class="cls-1" points="56.72 80.7 75.76 64.82 91.19 12.34 56.72 80.7"/><polygon class="cls-1" points="136.84 14.87 136.26 14.81 136.03 15 136.63 15.06 136.84 14.87"/><polygon class="cls-1" points="247.53 172.41 241.02 211.49 290.04 190.3 247.53 172.41"/><polygon class="cls-1" points="235.86 242.46 241.1 242.46 237.38 233.33 235.86 242.46"/><polygon class="cls-1" points="322.36 203.54 322.36 176.69 290.89 190.3 322.36 203.54"/><polygon class="cls-1" points="114.91 34.44 136.29 15.36 135.68 15.3 76.05 65.02 75.65 66.38 114.91 34.44"/><polygon class="cls-1" points="290.47 190.48 240.96 211.88 237.49 232.7 241.46 242.46 322.36 242.46 322.36 203.9 317.02 201.65 290.47 190.48"/><polygon class="cls-1" points="146.05 6.64 136.62 14.51 137.18 14.56 146.05 6.64"/><polygon class="cls-1" points="75.19 66.75 75.59 65.4 56.34 81.45 55.8 82.53 75.19 66.75"/><polygon class="cls-1" points="14.34 176.04 18.93 170.81 15.9 161.64 0.9 191.39 14.34 176.04"/><polygon class="cls-1" points="74.78 242.46 76.79 242.46 74.54 240.78 74.78 242.46"/><polygon class="cls-1" points="0.37 192.5 34.08 242.46 42.54 242.46 19.05 171.18 0.37 192.5"/><polygon class="cls-1" points="55.7 81.99 25.2 107.42 55.16 83.04 55.7 81.99"/><polygon class="cls-1" points="62.16 231.56 62.88 242.46 74.45 242.46 74.16 240.5 62.16 231.56"/><polygon class="cls-1" points="4.71 126.59 15.97 160.77 19.51 153.74 4.71 126.59"/><polygon class="cls-1" points="230.25 216.21 184.29 192.44 72.67 227.98 74.47 240.31 77.35 242.46 193.5 242.46 226.74 218.72 230.25 216.21"/><polygon class="cls-1" points="230.5 216.44 194.07 242.46 235.52 242.46 237.14 232.74 230.5 216.44"/><polygon class="cls-1" points="25.2 164.16 19.3 170.89 42.89 242.46 62.54 242.46 61.8 231.26 25.2 164.16"/><polygon class="cls-1" points="322.36 84.53 322.36 82.61 321.12 80.78 322.36 84.53"/><polygon class="cls-1" points="297.63 45.95 286.37 74.35 322.36 108.43 322.36 85.59 320.44 79.76 297.63 45.95"/><polygon class="cls-1" points="254.77 154.04 247.62 172.09 290.46 190.12 322.36 176.33 322.36 108.89 286.23 74.69 254.77 154.04"/><polygon class="cls-1" points="304 29.87 297.77 45.57 320.05 78.59 304 29.87"/><polygon class="cls-1" points="19.71 154.09 16.11 161.22 19.18 170.52 25.03 163.85 19.71 154.09"/><polygon class="cls-2" points="86.27 141.76 183.87 192.23 183.87 192.23 86.27 141.76 86.27 141.76"/><polygon class="cls-2" points="58.06 126.8 95.83 105.08 95.83 105.08 58.06 126.8 58.06 126.8"/><polygon class="cls-2" points="96.23 104.84 151.71 72.94 151.71 72.94 96.23 104.84 96.23 104.84"/><polygon class="cls-2" points="57.92 127.1 85.97 141.61 85.97 141.61 57.92 127.1 57.92 127.1"/><polygon class="cls-2" points="231.58 155.49 233.99 31.47 233.99 31.47 231.58 155.49 231.58 155.49"/><polygon class="cls-2" points="233.74 25.38 223.23 31.43 223.23 31.43 233.74 25.38 233.74 25.38"/><polygon class="cls-2" points="234.1 25.56 233.99 31.14 233.99 31.14 234.1 25.56 234.1 25.56"/><polygon class="cls-2" points="222.62 31.78 222.62 31.78 173.59 59.98 222.62 31.78"/><polygon class="cls-2" points="230.41 215.91 231.16 177.53 231.16 177.53 230.41 215.91 230.41 215.91"/><polygon class="cls-2" points="184.29 192.44 230.25 216.21 230.25 216.21 184.29 192.44 184.29 192.44"/><polygon class="cls-2" points="152.01 72.77 152.01 72.77 185.91 53.27 152.01 72.77"/><polygon class="cls-2" points="231.57 155.96 231.16 177.17 231.16 177.17 231.57 155.96 231.57 155.96"/><polygon class="cls-2" points="230.75 215.93 231.31 187.03 230.75 215.93 230.75 215.93"/><polygon class="cls-2" points="135.21 15.25 135.21 15.25 103.6 12 135.21 15.25"/><polygon class="cls-2" points="151.77 72.52 152.01 72.77 185.91 53.27 223.32 31.76 222.62 31.78 173.59 59.98 151.77 72.52"/><path class="cls-2" d="M91.8,10.48h0Z"/><path class="cls-2" d="M91.88,10.46h0Z"/><polygon class="cls-2" points="119.22 13.27 135.57 14.95 135.57 14.95 119.24 13.27 119.22 13.27"/><polygon class="cls-2" points="91.99 10.8 76.22 64.44 76.22 64.44 91.99 10.8 91.99 10.8"/><polygon class="cls-2" points="75.65 66.38 76.05 65.02 76.05 65.02 75.65 66.38 75.65 66.38"/><polygon class="cls-2" points="91.89 10.46 91.89 10.46 91.9 10.46 91.89 10.46"/><polygon class="cls-2" points="136.29 15.36 135.68 15.3 135.68 15.3 136.29 15.36 136.29 15.36"/><polygon class="cls-2" points="234.29 25.1 137.07 15.11 137.07 15.11 234.29 25.1 234.29 25.1"/><polygon class="cls-2" points="136.63 15.06 136.03 15 136.03 15 136.63 15.06 136.63 15.06"/><polygon class="cls-2" points="96.23 104.84 151.71 72.94 151.47 72.69 96.36 104.39 96.23 104.84"/><polygon class="cls-2" points="233.74 25.38 223.23 31.43 223.93 31.41 234.1 25.56 234.1 25.56 234.1 25.42 136.74 15.4 136.74 15.4 233.74 25.38 233.74 25.38"/><polygon class="cls-2" points="57.91 126.72 58.06 126.8 95.83 105.08 95.95 104.62 57.98 126.45 75.48 66.94 75.48 66.94 57.91 126.72"/><polygon class="cls-2" points="290.46 190.48 240.96 211.88 240.96 211.88 290.47 190.48 290.46 190.48"/><polygon class="cls-2" points="286.23 74.69 322.36 108.89 322.36 108.89 286.23 74.69 286.23 74.69"/><polygon class="cls-2" points="290.89 190.3 322.36 176.69 322.36 176.69 290.89 190.3 290.89 190.3"/><polygon class="cls-2" points="240.39 31.29 285.97 74.44 285.97 74.44 240.39 31.29 240.39 31.29"/><polygon class="cls-2" points="231.57 155.96 231.16 177.17 231.5 177.06 231.9 156.3 231.57 155.96"/><polygon class="cls-2" points="230.79 216.27 240.59 212.04 240.59 212.04 230.79 216.27 230.79 216.27"/><polygon class="cls-2" points="231.91 155.83 234.32 31.46 233.99 31.47 231.58 155.49 231.91 155.83"/><polygon class="cls-2" points="234.2 25.43 234.1 25.42 234.1 25.56 233.99 31.14 234.33 31.13 234.43 25.65 240.05 30.97 240.05 30.97 234.2 25.43"/><polygon class="cls-2" points="230.58 216 230.75 215.93 231.31 187.03 231.49 177.42 231.16 177.53 230.41 215.91 230.58 216"/><polygon class="cls-2" points="320.05 78.59 297.77 45.57 297.63 45.95 320.44 79.76 320.05 78.59"/><polygon class="cls-2" points="321.12 80.78 322.36 82.61 322.36 82.01 320.74 79.61 321.12 80.78"/><polygon class="cls-2" points="240.39 31.29 285.97 74.44 286.1 74.11 240.87 31.28 240.39 31.29"/><polygon class="cls-2" points="286.23 74.69 322.36 108.89 322.36 108.43 286.37 74.35 286.23 74.69"/><polygon class="cls-2" points="286.88 30.02 297.4 45.61 297.55 45.24 287.27 30.01 286.88 30.02"/><path class="cls-2" d="M286,28.1a.21.21,0,0,1,0,.11.16.16,0,0,1-.17.15h0l-51.58-2.92h-.06L240.05,31h.47l-5.8-5.5,51,2.9.9,1.33h.39L286,28.1Z"/><polygon class="cls-2" points="234.29 25.1 234.29 25.1 275.96 27.47 275.96 27.47 234.29 25.1 234.29 25.1"/><polygon class="cls-2" points="193.5 242.46 193.5 242.46 226.74 218.72 193.5 242.46"/><polygon class="cls-2" points="57.59 127.19 68.93 204.75 68.93 204.75 57.59 127.19 57.59 127.19"/><polygon class="cls-2" points="72.62 227.64 72.62 227.64 69.28 204.77 69.28 204.77 72.62 227.64"/><polygon class="cls-2" points="69.06 205.58 69.06 205.58 71.55 222.62 69.06 205.58"/><polygon class="cls-2" points="74.47 240.31 74.47 240.31 72.67 227.98 72.67 227.98 74.47 240.31"/><polygon class="cls-2" points="74.54 240.78 74.78 242.46 74.78 242.46 74.54 240.78 74.54 240.78"/><polygon class="cls-2" points="86.27 141.76 183.87 192.23 184.32 192.08 86.36 141.43 86.27 141.76"/><polygon class="cls-2" points="230.5 216.44 194.07 242.46 194.07 242.46 230.5 216.44 230.5 216.44"/><polygon class="cls-2" points="58.06 126.8 57.91 126.72 57.88 126.82 69.15 203.94 69.15 203.94 57.92 127.1 57.92 127.1 85.97 141.61 86.06 141.28 58.06 126.8 58.06 126.8"/><path class="cls-2" d="M230.58,216l-.17-.09h0L184.74,192.3l-.45.14,46,23.77.23-.16h0s0,0,0,0Z"/><polygon class="cls-2" points="25.2 164.16 19.3 170.89 19.3 170.89 25.2 164.16 25.2 164.16"/><path class="cls-2" d="M0,192.5a.13.13,0,0,1,0-.06A.13.13,0,0,0,0,192.5Z"/><path class="cls-2" d="M19.05,171.18h0L.29,192.59a.18.18,0,0,1-.13.06l-.09,0a.2.2,0,0,1-.06-.07,0,0,0,0,1,0,0l33.66,49.88h.4L.37,192.5Z"/><polygon class="cls-2" points="0.9 191.39 14.34 176.04 0.9 191.39 0.9 191.39"/><polygon class="cls-2" points="69.06 205.58 71.55 222.62 72.3 227.75 72.62 227.64 69.28 204.77 69.06 205.58"/><path class="cls-2" d="M57.6,127.19l11.33,77.56.22-.81L57.88,126.82v0a.16.16,0,0,1,0,.07l-32.4,37h0l32.17-36.7Z"/><polygon class="cls-2" points="72.34 228.08 74.09 240.03 74.47 240.31 72.67 227.98 72.34 228.08"/><polygon class="cls-2" points="74.16 240.5 74.45 242.46 74.78 242.46 74.54 240.78 74.16 240.5"/><polygon class="cls-2" points="237.38 233.33 241.1 242.46 241.1 242.46 237.38 233.33 237.38 233.33"/><polygon class="cls-2" points="290.89 190.3 322.36 176.69 322.36 176.33 290.46 190.12 290.89 190.3"/><path class="cls-2" d="M230.74,215.93l-.16.07-.07,0s0,0,0,0a.13.13,0,0,1,.13,0,.14.14,0,0,1,.11.09l.06.15,9.8-4.23.07-.39-9.92,4.28Z"/><polygon class="cls-2" points="290.04 190.3 241.02 211.49 240.96 211.88 290.46 190.48 290.04 190.3"/><polygon class="cls-2" points="230.5 216.44 230.5 216.44 230.5 216.44 237.14 232.74 237.14 232.74 230.5 216.44"/><polygon class="cls-2" points="237.38 233.33 241.1 242.46 241.46 242.46 237.49 232.7 237.38 233.33"/><path class="cls-2" d="M230.5,216.44l6.64,16.3.1-.63-6.45-15.84h0l-.06-.15a.14.14,0,0,0-.11-.09.13.13,0,0,0-.13,0h0l-.23.16h0l-3.51,2.51L193.5,242.46h.57l36.43-26Z"/><path class="cls-2" d="M91.19,12.34,75.76,64.82l.46-.38L92,10.8h-.14a.17.17,0,0,1-.15-.18.26.26,0,0,1,0-.09l0,0L56.07,81.24l.65-.54Z"/><polygon class="cls-2" points="75.65 66.38 76.05 65.02 75.59 65.4 75.19 66.75 75.65 66.38"/><polygon class="cls-2" points="19.51 153.74 15.97 160.77 16.11 161.22 19.71 154.09 19.51 153.74"/><polygon class="cls-2" points="55.8 82.53 56.34 81.45 55.7 81.99 55.16 83.04 55.8 82.53"/><polygon class="cls-2" points="54.8 83.77 19.7 153.37 19.89 153.73 55.43 83.26 54.8 83.77"/><path class="cls-2" d="M91.85,10.47h-.06Z"/><path class="cls-2" d="M.16,192.65a.18.18,0,0,0,.13-.06l18.76-21.41-.12-.37-4.59,5.24L.9,191.39h0l15-29.75-.15-.45L0,192.41v0a.13.13,0,0,0,0,.06s0,0,0,.05a.2.2,0,0,0,.06.07Z"/><polygon class="cls-2" points="25.03 163.85 19.18 170.52 19.3 170.89 25.2 164.16 25.03 163.85"/><path class="cls-2" d="M57.83,126.92a.16.16,0,0,0,0-.07v0l0-.1L75.48,66.94l-.45.37L57.56,126.72l-32.3,36.86.17.31Z"/><polygon class="cls-2" points="137.18 14.56 136.62 14.51 136.26 14.81 136.84 14.87 137.18 14.56"/><polygon class="cls-2" points="136.63 15.06 136.03 15 135.68 15.3 136.29 15.36 136.63 15.06"/><path class="cls-2" d="M234.1,25.42h.16l51.58,2.92h0a.16.16,0,0,0,.17-.15.21.21,0,0,0,0-.11.19.19,0,0,0-.12-.07L137.64,14.6l-.34.31L276,27.47h0L234.29,25.1h0l-97.22-10-.33.31Z"/><path class="cls-2" d="M91.7,10.61a.17.17,0,0,0,.15.18H92L103.6,12l31.61,3.25.36-.3-16.35-1.68h0l16.55,1.5.36-.3-44.25-4h-.05l-.06,0h0l0,0A.26.26,0,0,0,91.7,10.61Z"/><polygon class="cls-2" points="72.34 228.08 72.67 227.98 72.67 227.98 184.29 192.44 184.29 192.44 184.74 192.3 231.16 177.53 231.16 177.53 231.49 177.42 247.19 172.42 247.19 172.42 62.33 231.27 62.33 231.27 72.34 228.08"/><polygon class="cls-2" points="72.62 227.64 72.3 227.75 62.21 230.96 62.21 230.96 73.06 227.5 72.62 227.64 72.62 227.64"/><path class="cls-2" d="M3.82,124.85s0,0,0,0,0,0,0,0Z"/><polygon class="cls-2" points="114.91 34.44 114.91 34.44 75.65 66.38 75.65 66.38 75.19 66.75 55.8 82.53 55.16 83.04 25.2 107.42 25.18 107.43 114.91 34.44"/><path class="cls-2" d="M3.86,124.78l0,0h0Z"/><polygon class="cls-2" points="69.06 205.58 69.06 205.58 69.28 204.77 69.28 204.77 86.27 141.76 86.27 141.76 86.36 141.43 96.23 104.84 96.23 104.84 96.36 104.39 115.11 34.89 115.01 34.79 4.18 124.94 4.18 124.94 54.8 83.77 55.43 83.26 75.03 67.31 75.48 66.94 75.48 66.94 114.73 35.02 95.95 104.62 95.83 105.08 95.83 105.08 86.06 141.28 85.97 141.61 85.97 141.61 69.15 203.94 69.15 203.94 68.93 204.75 68.93 204.75 61.92 230.76 62.05 231.01 62.21 230.96 62.21 230.96 69.06 205.58"/><polygon class="cls-2" points="3.87 124.77 3.87 124.77 3.88 124.76 3.87 124.77"/><polygon class="cls-2" points="19.71 154.09 25.03 163.85 25.2 164.16 25.2 164.16 61.8 231.26 61.8 231.26 4.71 126.59 4.71 126.59 19.51 153.74 19.71 154.09"/><polygon class="cls-2" points="231.91 155.83 231.58 155.49 231.58 155.49 152.01 72.77 152.01 72.77 151.77 72.52 115.41 34.72 115.08 34.73 115.01 34.79 115.11 34.89 151.47 72.69 151.71 72.94 151.71 72.94 231.57 155.96 231.57 155.96 231.9 156.3 247.1 172.1 247.28 172.04 276.77 97.65 247.34 171.87 231.91 155.83"/><path class="cls-2" d="M304.15,29.29Z"/><polygon class="cls-2" points="254.77 154.04 247.62 172.09 247.62 172.09 254.77 154.04"/><polygon class="cls-2" points="302.49 29.26 302.49 29.26 287.05 29.68 286.65 29.69 240.52 30.96 240.05 30.97 240.05 30.97 234.33 31.13 233.99 31.14 233.99 31.14 223.93 31.41 223.23 31.43 223.23 31.43 115.47 34.38 115.47 34.38 302.49 29.26"/><polygon class="cls-2" points="153.45 0.04 153.45 0.04 153.45 0.04 153.45 0.04"/><path class="cls-2" d="M153.67.29l-38.54,34.4,0,0h.33l107.21-2.94h0l.7,0L234,31.47h.33l6.07-.17h.48l46-1.26h.39l16.49-.45.1-.24a.15.15,0,0,1,.16-.1h0L153.59,0h0a.24.24,0,0,1,.1.05A.17.17,0,0,1,153.67.29ZM115.48,34.38l21.26-19h0l.33-.31h0l.23-.19.34-.31,16-14.26L302.49,29.26h0l-187,5.12Z"/><polygon class="cls-2" points="136.84 14.87 136.63 15.06 136.63 15.06 136.29 15.36 136.29 15.36 114.91 34.44 114.91 34.44 114.92 34.43 146.06 6.64 146.05 6.64 137.18 14.56 136.84 14.87"/><path class="cls-2" d="M304.15,29.3h0s0,0,0,0Z"/><polygon class="cls-2" points="62.16 231.56 62.16 231.56 74.16 240.5 74.54 240.78 74.54 240.78 76.79 242.46 76.79 242.46 62.16 231.56"/><path class="cls-2" d="M247.24,172.15a0,0,0,0,1,0,0v0l0-.08-.18.06-15.6,5-.34.1h0l-46.84,14.91-.45.15h0L73.06,227.5,62.21,231l-.16,0,.05.09.23.17,184.86-58.85h0l-6.53,39.23-.07.39h0l-3.35,20.07-.1.63h0l-1.62,9.72h0Z"/><path class="cls-2" d="M74.47,240.31l-.38-.28-11.76-8.76h0l-.23-.17,0,0a.64.64,0,0,1,0,.07l0,.36,14.63,10.9h.56l-2.88-2.15Z"/><polygon class="cls-2" points="322.36 203.9 322.36 203.9 317.02 201.65 322.36 203.9"/><path class="cls-2" d="M320.74,79.61,304.17,29.33l0,0,0,0-.06,0H304a.15.15,0,0,0-.16.1l-.1.24-6.21,15.68-.15.37-11.3,28.5-.13.33h0l-9.2,23.21L247.28,172l0,.08v0a.14.14,0,0,1,.07-.11.2.2,0,0,1,.15,0l.15.07,7.15-18,31.46-79.36h0l.13-.34L297.62,46l.15-.38L304,29.87l16.05,48.72.39,1.17,1.92,5.83V84.53l-1.24-3.76Z"/><path class="cls-2" d="M290.89,190.3l-.43-.18-42.84-18h0l-.15-.07a.2.2,0,0,0-.15,0,.14.14,0,0,0-.07.11,0,0,0,0,0,0,0l-11.72,70.31h.34l1.52-9.13h0l.1-.63L241,211.88h0l.06-.39,6.51-39.08L290,190.3l.43.18h0L317,201.65l5.34,2.25v-.36L290.89,190.3Z"/><path class="cls-2" d="M3.85,124.8h0a.05.05,0,0,0,0,0h0A.09.09,0,0,1,3.85,124.8Z"/><path class="cls-2" d="M62.16,231.56l0-.36a.64.64,0,0,0,0-.07l0,0-.05-.09-.13-.25L25.43,163.89h0l-.17-.31-5.37-9.85-.19-.36L4.18,124.94h0l-.1.09a.21.21,0,0,1-.11,0,.18.18,0,0,1-.13-.06.15.15,0,0,1,0-.09s0,0,0,0l11.94,36.24.15.45,3,9.17.12.37h0l23.49,71.28h.35L19.3,170.89h0l-.12-.37-3.06-9.3-.15-.45L4.71,126.59h0l57.1,104.67h0l.73,11.2h.34l-.72-10.9Z"/><path class="cls-2" d="M3.84,125a.18.18,0,0,0,.13.06.21.21,0,0,0,.11,0l.1-.09L115,34.79l.07-.06,0,0L153.67.29a.17.17,0,0,0,0-.24.24.24,0,0,0-.1,0c-.05,0-.1,0-.13,0h0l-17.3,14.43-.36.3-.22.18h0l-.36.3h0l-59,49.19h0l-.46.38-19,15.88-.65.54L3.88,124.76h0v0a.09.09,0,0,0,0,.06s0,0,0,0a.08.08,0,0,0,0,0A.15.15,0,0,0,3.84,125ZM55.69,82l.65-.54,19.25-16,.46-.39h0L135.68,15.3h0L136,15h0l.23-.19.36-.3,9.43-7.87h0L114.92,34.43h0l-89.73,73h0Z"/></g></g></svg>