<svg xmlns="http://www.w3.org/2000/svg" viewBox="0 0 14.26 14.26"><defs><style>.cls-1{fill:#fff;}.cls-2{fill:#323c45;}</style></defs><title>Asset 34</title><g id="Layer_2" data-name="Layer 2"><g id="Layer_1-2" data-name="Layer 1"><circle class="cls-1" cx="7.13" cy="7.13" r="7.13"/><path class="cls-2" d="M5.82,10.4c-.23,0-.19-.09-.27-.31L4.87,7.86,10.1,4.75Z"/><path class="cls-1" d="M4.78,9.63c-.23,0,.09-1.77.09-1.77L10.1,4.75Z"/><path class="cls-2" d="M5.94,8.58,8.82,10.7c.33.19.56.09.65-.3l1.16-5.51c.12-.48-.18-.7-.49-.56L3.27,7c-.47.19-.47.45-.09.57L5,8.1,9,5.52c.19-.11.37,0,.22.08Z"/></g></g></svg>