<svg xmlns="http://www.w3.org/2000/svg" viewBox="0 0 14.36 20"><defs><style>.cls-1{fill:#93a4be;}</style></defs><title>Asset 3</title><g id="Layer_2" data-name="Layer 2"><g id="Layer_1-2" data-name="Layer 1"><path class="cls-1" d="M.4,7.26a.4.4,0,0,1-.4-.4v-4A2.81,2.81,0,0,1,2.8,0h7.41a.4.4,0,0,1,0,.8H2.8a2,2,0,0,0-2,2v4A.4.4,0,0,1,.4,7.26Z"/><path class="cls-1" d="M.4,8.78a.36.36,0,0,1-.28-.12A.38.38,0,0,1,0,8.38.41.41,0,0,1,.11,8.1a.42.42,0,0,1,.57,0,.39.39,0,0,1,0,.56A.36.36,0,0,1,.4,8.78Z"/><path class="cls-1" d="M7.46,18.33H2.8A2.82,2.82,0,0,1,0,15.51V9.9a.4.4,0,1,1,.8,0v5.61a2,2,0,0,0,2,2H7.46a.4.4,0,1,1,0,.8Z"/><path class="cls-1" d="M12.61,11.11a.4.4,0,0,1-.4-.4V2.82a.4.4,0,1,1,.8,0v7.89A.4.4,0,0,1,12.61,11.11Z"/><path class="cls-1" d="M12.61,3.22a.4.4,0,0,1-.4-.4,2,2,0,0,0-2-2,.39.39,0,0,1-.4-.4.39.39,0,0,1,.4-.4A2.81,2.81,0,0,1,13,2.82.4.4,0,0,1,12.61,3.22Z"/><path class="cls-1" d="M5.78,15.91H.4a.4.4,0,0,1,0-.8H5.78a.4.4,0,0,1,0,.8Z"/><path class="cls-1" d="M10.42,20a3.39,3.39,0,0,1-3.09-1.52c-.6-.94-1.17-1.92-1.72-2.86-.23-.38-.45-.76-.67-1.14a5.77,5.77,0,0,1-.38-.7,1.07,1.07,0,0,1,.21-1.44,1.14,1.14,0,0,1,1.56.14,6.11,6.11,0,0,1,.43.47l.07.08.08.1-.08-2.35c0-1.13-.07-2.25-.11-3.38s.64-1.34,1-1.36h.1c.39,0,1,.17,1.09,1.32l0,1.4.06,1.7a1.57,1.57,0,0,1,.43-.09h0a1.26,1.26,0,0,1,.82.31,1.21,1.21,0,0,1,.84-.37h0a1.24,1.24,0,0,1,.82.31,1.25,1.25,0,0,1,.84-.37h0a1.26,1.26,0,0,1,1.25,1.17v.05c.06,1.63.11,3.25.16,4.88a4.29,4.29,0,0,1-.24,1.46A3.12,3.12,0,0,1,11.24,20C10.94,20,10.67,20,10.42,20Zm-5-7.11a.4.4,0,0,0-.2.08c-.07.06-.14.12,0,.47s.23.44.34.63l.68,1.14c.54.94,1.11,1.91,1.71,2.84a2.57,2.57,0,0,0,2.41,1.15,6.7,6.7,0,0,0,.74,0,2.36,2.36,0,0,0,2.2-1.62,3.44,3.44,0,0,0,.2-1.18c0-1.61-.1-3.22-.16-4.83v0A.46.46,0,0,0,13,11a.47.47,0,0,0-.46.47v0a.4.4,0,0,1-.75.18.42.42,0,0,1,0-.1s0,0,0-.07a.45.45,0,0,0-.45-.45.46.46,0,0,0-.45.47.48.48,0,0,1-.09.29.41.41,0,0,1-.31.14.4.4,0,0,1-.4-.34V11.6a.45.45,0,0,0-.89-.1.39.39,0,0,1-.41.28.4.4,0,0,1-.37-.33,1.84,1.84,0,0,1,0-.33L8.2,8.78l0-1.4c0-.55-.18-.55-.29-.55h0c-.15,0-.31,0-.3.55,0,1.12.07,2.25.11,3.37l.09,2.7c0,.14,0,.28,0,.46v.33a.39.39,0,0,1-.27.37A.39.39,0,0,1,7,14.49l-.3-.36-.48-.58-.07-.08a5.06,5.06,0,0,0-.37-.41A.51.51,0,0,0,5.46,12.89Z"/><path class="cls-1" d="M8.73,12.2a.4.4,0,0,1-.4-.38V11.4A.39.39,0,0,1,8.7,11h0a.41.41,0,0,1,.4.39v.42a.4.4,0,0,1-.39.41Z"/></g></g></svg>