<svg xmlns="http://www.w3.org/2000/svg" viewBox="0 0 60.82 49.43"><defs><style>.cls-1{fill:#00a2f9;}</style></defs><title>Asset 135</title><g id="Layer_2" data-name="Layer 2"><g id="Layer_1-2" data-name="Layer 1"><path class="cls-1" d="M54.6,12.31l0,1.61c0,16.49-12.56,35.51-35.52,35.51A35,35,0,0,1,0,43.8,22.23,22.23,0,0,0,3,44a25.08,25.08,0,0,0,15.5-5.35A12.52,12.52,0,0,1,6.81,30a11.42,11.42,0,0,0,2.35.23,12.49,12.49,0,0,0,3.28-.44,12.48,12.48,0,0,1-10-12.22v-.16a12.15,12.15,0,0,0,5.63,1.55A12.45,12.45,0,0,1,4.24,2.29,35.39,35.39,0,0,0,30,15.32a12.15,12.15,0,0,1-.31-2.85A12.49,12.49,0,0,1,51.23,3.93a25.45,25.45,0,0,0,7.92-3,12.44,12.44,0,0,1-5.5,6.89,24.89,24.89,0,0,0,7.17-2,25.35,25.35,0,0,1-6.22,6.47Z"/></g></g></svg>