<svg xmlns="http://www.w3.org/2000/svg" viewBox="0 0 13.04 10.6"><defs><style>.cls-1{fill:#fff;}</style></defs><title>Asset 36</title><g id="Layer_2" data-name="Layer 2"><g id="Layer_1-2" data-name="Layer 1"><path class="cls-1" d="M11.71,2.64V3A7.56,7.56,0,0,1,4.1,10.6,7.56,7.56,0,0,1,0,9.39a4.49,4.49,0,0,0,.64,0A5.37,5.37,0,0,0,4,8.28a2.67,2.67,0,0,1-2.5-1.85,2.74,2.74,0,0,0,.5,0,2.71,2.71,0,0,0,.71-.09A2.69,2.69,0,0,1,.52,3.76v0a2.6,2.6,0,0,0,1.21.33A2.69,2.69,0,0,1,.91.49,7.56,7.56,0,0,0,6.42,3.28a2.43,2.43,0,0,1-.06-.61A2.67,2.67,0,0,1,9,0a2.7,2.7,0,0,1,2,.84A5.53,5.53,0,0,0,12.68.2,2.67,2.67,0,0,1,11.5,1.68,5.34,5.34,0,0,0,13,1.25a5.67,5.67,0,0,1-1.33,1.39Z"/></g></g></svg>